<?xml version="1.0" standalone="no"?>
<!DOCTYPE svg PUBLIC "-//W3C//DTD SVG 20010904//EN"
 "http://www.w3.org/TR/2001/REC-SVG-20010904/DTD/svg10.dtd">
<svg version="1.0" xmlns="http://www.w3.org/2000/svg"
 width="902.000000pt" height="902.000000pt" viewBox="0 0 902.000000 902.000000"
 preserveAspectRatio="xMidYMid meet">
<metadata>
Created by potrace 1.14, written by Peter Selinger 2001-2017
</metadata>
<g transform="translate(0.000000,902.000000) scale(0.100000,-0.100000)"
fill="#000000" stroke="none">
<path d="M28 9008 c-23 -8 -28 -16 -28 -42 0 -18 6 -38 12 -45 10 -11 11 -14
1 -18 -9 -3 -13 -32 -13 -98 0 -84 2 -93 20 -98 11 -3 20 -12 20 -21 0 -9 -8
-16 -20 -16 -15 0 -20 -7 -20 -25 0 -20 5 -25 27 -25 14 0 23 -3 20 -7 -4 -3
-2 -12 4 -19 13 -16 -11 -30 -36 -20 -12 4 -15 -4 -15 -45 0 -28 5 -60 11 -72
17 -34 89 -97 110 -97 23 0 25 28 4 36 -8 4 -15 15 -15 25 0 18 1 19 25 3 23
-15 25 -15 31 1 9 23 -31 49 -79 50 -59 0 -71 26 -30 64 17 15 43 31 58 35 19
5 31 18 42 46 9 22 22 40 30 40 7 0 13 9 13 19 0 11 14 40 30 64 29 44 40 97
20 97 -6 0 -22 -12 -35 -27 -19 -21 -23 -35 -19 -57 12 -56 -31 -51 -96 10
-14 13 -40 36 -58 51 -46 40 -32 54 64 58 43 2 86 6 95 10 10 3 20 2 24 -4 11
-19 25 -12 25 14 0 26 -9 32 -26 15 -25 -25 -114 50 -114 96 0 16 -41 17 -82
2z m67 -97 c0 -7 -10 -17 -22 -22 -20 -7 -23 -5 -23 17 0 21 4 25 23 22 12 -2
22 -9 22 -17z m-39 -153 c39 -33 45 -41 36 -50 -9 -9 -67 15 -77 33 -7 11 3
29 16 29 5 0 17 -6 25 -12z m54 -109 c0 -5 -7 -9 -15 -9 -9 0 -12 6 -9 15 6
15 24 11 24 -6z"/>
<path d="M469 8994 c-11 -31 -9 -34 36 -50 40 -13 49 -7 60 44 l7 32 -46 0
c-41 0 -48 -3 -57 -26z"/>
<path d="M823 8990 c-10 -26 -9 -32 8 -40 10 -6 21 -23 25 -38 9 -41 26 -85
40 -102 6 -8 22 -40 35 -70 12 -30 32 -69 44 -85 12 -17 26 -45 29 -62 4 -18
15 -42 25 -55 10 -13 21 -33 25 -45 4 -12 16 -25 26 -28 12 -4 20 -17 22 -38
2 -22 10 -35 26 -42 12 -5 22 -18 22 -28 0 -11 6 -33 14 -50 7 -18 20 -48 27
-66 7 -19 26 -50 42 -68 16 -18 27 -39 24 -47 -3 -8 6 -24 20 -37 14 -13 37
-44 51 -69 14 -25 34 -56 44 -69 22 -29 24 -71 3 -71 -8 0 -19 9 -25 20 -6 11
-16 20 -22 20 -16 0 -48 41 -48 62 0 31 -48 104 -76 117 -18 8 -24 17 -20 27
8 21 -11 45 -29 37 -9 -3 -17 5 -21 21 -4 19 -13 26 -30 26 -13 0 -24 5 -24
10 0 6 -6 10 -13 10 -20 0 -41 50 -27 64 18 18 12 46 -10 46 -11 0 -24 8 -27
18 -10 26 -36 41 -60 36 -15 -4 -26 1 -38 20 -15 22 -15 28 -3 45 8 11 12 35
10 55 -4 34 -4 35 -28 19 -30 -19 -54 -11 -54 21 0 28 -26 42 -47 24 -17 -14
-12 -66 14 -139 20 -58 13 -79 -26 -79 -67 0 -106 41 -57 60 20 7 24 17 28 67
6 62 1 86 -13 77 -5 -3 -8 -23 -7 -45 2 -50 -9 -60 -33 -30 -24 29 -24 59 -2
83 12 14 17 35 16 76 0 31 5 86 13 121 7 36 11 68 8 72 -2 4 0 10 6 14 17 11
11 88 -10 115 l-19 25 -15 -35 c-8 -19 -15 -29 -16 -22 0 6 -6 12 -14 12 -8 0
-17 -6 -19 -12 -4 -10 -6 -10 -6 0 -1 20 -21 14 -21 -7 0 -10 -7 -21 -15 -25
-10 -3 -15 -19 -15 -46 0 -30 -4 -40 -16 -40 -12 0 -15 -6 -11 -22 3 -12 2
-28 -2 -37 -5 -9 -11 -39 -14 -67 -5 -46 -2 -56 26 -100 28 -42 31 -53 23 -76
-6 -16 -15 -28 -22 -28 -6 0 -18 -7 -25 -16 -11 -14 -11 -18 2 -28 9 -6 21
-21 28 -33 6 -13 21 -23 32 -23 12 0 19 -5 16 -12 -2 -8 -23 -13 -53 -13 -61
-1 -113 -30 -121 -67 -3 -15 -19 -37 -36 -50 -63 -48 -70 -55 -63 -66 4 -7 17
-12 30 -12 13 0 44 -11 70 -25 26 -14 78 -33 116 -43 48 -12 81 -29 111 -55
24 -20 53 -44 64 -52 30 -22 -2 -19 -49 4 -54 28 -95 42 -143 51 -40 6 -42 6
-48 -22 -10 -43 -19 -41 -46 10 -25 47 -25 47 -82 50 -31 2 -57 7 -57 12 0 6
-7 10 -15 10 -8 0 -15 -4 -15 -10 0 -5 7 -10 15 -10 8 0 15 -4 15 -10 0 -5 -9
-10 -20 -10 -13 0 -22 -9 -26 -27 -4 -16 -20 -42 -36 -59 -23 -24 -29 -39 -26
-64 3 -29 -1 -34 -28 -44 -16 -6 -47 -30 -68 -53 -21 -24 -44 -43 -51 -43 -15
0 -47 -35 -39 -43 4 -3 11 -26 16 -49 31 -146 31 -139 10 -162 -11 -11 -23
-42 -26 -68 -8 -52 -10 -50 53 -52 43 -1 48 -16 17 -53 -17 -20 -24 -40 -23
-65 0 -21 -6 -45 -15 -55 -9 -10 -15 -29 -14 -43 1 -28 7 -29 206 -50 52 -5
181 -19 285 -30 105 -11 269 -27 365 -35 96 -9 227 -22 290 -30 63 -7 196 -21
295 -30 305 -27 566 -55 652 -70 45 -8 106 -15 136 -15 30 0 77 -4 105 -10 27
-5 92 -12 144 -15 101 -6 229 -23 237 -30 7 -7 -2 -7 -254 16 -251 22 -385 32
-630 49 -88 6 -176 13 -195 15 -19 2 -75 6 -125 10 -253 18 -587 46 -645 55
-36 5 -166 14 -290 20 -124 6 -254 13 -290 16 -36 3 -122 6 -192 7 l-128 2 0
-42 c0 -47 -3 -45 100 -62 82 -14 189 -25 520 -56 146 -13 382 -36 525 -50
331 -32 540 -52 685 -65 63 -5 156 -14 205 -20 50 -5 227 -23 395 -40 320 -32
416 -47 305 -49 -68 -1 -276 13 -510 34 -140 12 -467 40 -875 75 -163 13 -569
45 -840 65 -118 9 -253 20 -300 25 -47 6 -113 10 -147 10 l-63 0 0 -150 0
-151 68 7 c39 4 75 13 86 23 22 19 54 16 81 -9 34 -30 62 -33 85 -10 19 19 22
19 43 5 26 -17 37 -11 37 17 0 23 4 23 58 -3 34 -17 46 -19 52 -9 10 15 30 4
30 -16 0 -11 8 -15 28 -13 15 2 33 0 39 -4 7 -4 27 0 44 9 30 15 34 15 60 0
15 -9 30 -12 33 -7 11 17 87 23 100 8 6 -8 27 -17 46 -21 19 -3 55 -10 80 -15
25 -6 79 -10 120 -11 46 0 86 -6 104 -15 16 -8 54 -15 88 -15 33 0 68 -5 79
-10 13 -7 25 -7 38 0 14 7 29 6 53 -4 35 -14 119 -29 178 -31 19 0 68 -2 108
-3 65 -2 75 -5 79 -22 4 -14 14 -20 34 -20 17 0 32 -6 35 -15 5 -12 10 -13 20
-5 9 8 19 8 35 0 24 -13 39 -1 39 32 0 27 18 31 44 11 18 -15 22 -23 14 -36
-7 -13 -3 -20 17 -29 18 -8 29 -8 36 -1 8 8 17 5 31 -9 17 -17 18 -22 7 -29
-8 -5 -17 -9 -20 -9 -3 0 -4 -13 -1 -30 3 -24 1 -30 -15 -30 -24 0 -43 -19
-43 -42 0 -14 6 -16 33 -12 17 4 42 13 55 21 20 12 23 20 17 53 -4 26 -1 48 9
68 15 29 17 30 96 30 l80 0 21 -46 c20 -44 20 -46 3 -59 -10 -7 -24 -13 -32
-13 -12 0 -12 -3 -1 -16 11 -14 10 -19 -11 -36 -26 -21 -67 -18 -86 8 -16 20
-45 17 -51 -6 -4 -15 -14 -20 -37 -20 -34 -1 -80 -29 -58 -37 19 -7 14 -23 -9
-23 -36 0 -61 19 -53 42 6 19 3 20 -22 14 -22 -6 -25 -5 -16 6 8 11 7 17 -8
26 -24 15 -46 7 -54 -20 -6 -27 0 -38 22 -38 9 0 24 -5 32 -10 11 -7 5 -9 -20
-6 -19 3 -73 7 -120 11 -47 3 -128 10 -180 15 -206 20 -442 40 -590 50 -264
18 -680 49 -780 60 -218 22 -217 22 -234 5 -13 -13 -16 -40 -16 -143 -1 -70
-3 -176 -6 -237 -15 -374 -34 -1127 -34 -1397 l0 -318 28 0 c15 0 33 -4 41 -9
11 -7 9 -11 -8 -20 -12 -7 -19 -16 -16 -22 11 -17 85 -9 133 15 87 45 84 38
72 151 -9 89 -32 242 -45 303 -9 40 12 23 30 -25 10 -27 21 -52 26 -57 9 -11
134 20 163 40 18 13 19 14 1 20 -9 4 -33 2 -52 -5 -26 -10 -37 -10 -48 -1 -12
10 -11 18 8 53 12 23 22 43 23 45 1 1 9 0 18 -4 13 -5 14 -9 5 -21 -9 -11 -9
-17 1 -26 10 -9 14 -9 17 1 3 7 15 25 27 39 l23 26 22 -32 c12 -17 29 -31 37
-31 23 0 16 34 -14 62 -53 49 -142 77 -142 44 0 -8 -12 -24 -26 -35 -22 -17
-30 -19 -41 -9 -13 11 -12 14 7 22 14 6 20 16 17 27 -3 10 0 20 6 22 25 8 -7
29 -39 25 -21 -2 -34 0 -34 7 0 7 -9 20 -20 30 -27 25 -25 35 7 35 16 -1 51 4
78 10 28 6 70 10 95 10 25 0 103 6 175 14 72 8 152 16 179 18 81 5 67 25 -22
33 -43 4 -84 10 -91 15 -18 10 41 30 91 30 21 0 53 7 69 16 29 15 31 14 51
-11 13 -17 27 -25 39 -22 26 7 62 -38 49 -62 -7 -14 -5 -25 10 -44 22 -28 26
-77 9 -109 -14 -27 -4 -35 19 -15 10 10 24 17 30 17 7 0 12 4 12 8 0 4 22 24
48 44 45 33 52 35 91 28 44 -8 59 -16 48 -27 -4 -3 -19 0 -33 7 -18 10 -30 11
-42 4 -9 -6 -44 -65 -77 -130 -33 -66 -70 -135 -82 -154 -44 -71 -182 -340
-183 -354 0 -5 -11 -24 -25 -42 -14 -18 -25 -39 -25 -47 0 -20 -47 -61 -62
-53 -7 4 -24 13 -38 21 -37 22 -70 19 -70 -5 0 -28 -28 -25 -36 3 -3 14 -20
31 -39 40 -38 18 -52 9 -35 -22 13 -25 13 -31 -1 -31 -33 0 -119 -33 -119 -46
0 -18 -66 -19 -73 -1 -4 8 -8 9 -14 1 -4 -6 -16 -13 -26 -17 -22 -8 -22 -24 1
-31 53 -17 191 -26 310 -20 122 6 148 13 122 29 -23 14 -7 25 40 25 53 0 57 5
52 62 -1 10 9 25 23 34 14 9 25 26 25 38 0 12 11 32 25 44 31 27 31 27 38 1 5
-18 11 -20 34 -14 37 9 41 15 22 25 -11 6 -15 18 -11 35 4 23 8 25 37 19 43
-8 56 12 24 38 l-24 18 24 20 c25 21 43 24 76 10 13 -5 26 -3 38 8 20 18 22
32 4 32 -7 0 -18 9 -25 20 -7 11 -20 20 -30 20 -30 0 -45 16 -37 39 5 17 10
20 20 11 9 -8 20 -8 32 -2 26 14 56 -4 48 -28 -9 -27 9 -33 30 -10 20 22 40
26 50 10 7 -12 -32 -80 -46 -80 -17 0 -31 -52 -20 -75 15 -30 18 -77 4 -82 -6
-2 -19 12 -28 31 -20 41 -23 43 -41 19 -18 -24 -17 -43 1 -43 21 0 19 -23 -3
-36 -10 -7 -24 -30 -32 -53 -7 -22 -19 -41 -27 -41 -7 0 -13 -5 -13 -11 0 -12
-48 -79 -69 -95 -24 -19 -3 -37 22 -19 12 8 37 15 57 15 35 1 35 1 11 14 l-25
14 42 21 c23 12 49 32 58 46 16 24 44 34 44 16 0 -5 -18 -27 -41 -51 -37 -38
-39 -43 -26 -63 8 -12 17 -35 20 -52 4 -16 9 -44 13 -62 7 -34 23 -46 45 -33
11 7 11 12 -1 27 -49 60 -53 107 -12 146 15 15 32 27 36 27 5 0 14 7 21 17 12
16 35 11 35 -8 0 -5 -14 -18 -30 -28 -25 -15 -28 -20 -17 -30 11 -9 12 -21 5
-54 -20 -90 -21 -110 -7 -105 8 3 14 19 14 39 0 19 9 51 20 73 l20 38 58 -6
c32 -3 63 -8 68 -11 9 -6 25 -59 34 -117 4 -24 11 -38 21 -38 23 0 28 27 10
54 -8 14 -18 42 -22 64 -5 34 -3 40 15 45 13 3 29 23 42 51 16 36 25 46 44 46
14 0 44 18 71 41 26 23 58 46 71 52 18 8 23 16 19 32 -4 17 2 25 30 38 45 22
44 22 44 -11 0 -15 -16 -51 -35 -79 -19 -29 -35 -57 -35 -64 0 -13 -29 -66
-50 -92 -13 -17 -13 -20 3 -28 23 -13 22 -28 -7 -92 -31 -66 -55 -88 -97 -88
-19 0 -51 0 -72 0 -20 0 -46 5 -57 11 -21 11 -86 16 -365 25 -99 3 -205 10
-235 15 -96 17 -300 32 -460 35 -198 3 -209 -2 -222 -90 -2 -15 -12 -21 -41
-23 -33 -3 -37 -6 -37 -32 0 -30 4 -32 70 -45 19 -4 42 -14 51 -22 19 -16 36
-17 96 -7 40 6 42 5 49 -21 4 -15 9 -23 13 -18 13 19 90 34 171 33 237 -2 243
-2 237 20 -5 19 0 20 73 20 44 0 82 5 85 10 9 14 134 7 164 -9 16 -9 41 -11
74 -7 65 7 111 -13 113 -50 1 -14 4 -28 7 -31 9 -8 48 8 42 18 -11 18 23 20
71 5 27 -8 41 -15 32 -15 -27 -1 -32 -21 -5 -21 13 0 35 9 48 21 15 13 30 18
44 14 11 -4 40 -10 65 -14 25 -4 55 -13 67 -19 37 -21 161 -27 181 -9 24 21
103 -3 121 -37 12 -22 17 -24 72 -19 41 4 59 2 59 -6 0 -6 15 -11 34 -11 19 0
42 -3 51 -7 15 -5 15 -8 -6 -24 l-23 -17 27 -13 c22 -10 35 -10 61 -1 18 7 44
12 59 12 22 0 27 -4 27 -26 0 -17 6 -28 20 -31 11 -3 17 -9 14 -14 -3 -5 0 -9
5 -9 6 0 11 -4 11 -10 0 -12 -46 -14 -53 -2 -2 4 -2 1 -1 -5 5 -18 1 -18 -176
-4 -63 5 -151 6 -195 1 -46 -4 -90 -4 -104 1 -13 5 -164 11 -335 13 -171 2
-340 9 -376 16 -71 12 -148 36 -166 51 -8 6 -14 5 -18 -6 -8 -22 -30 -18 -41
7 -9 21 -19 24 -95 29 -47 3 -105 14 -130 23 -37 15 -64 16 -150 11 -83 -5
-114 -3 -150 10 -42 15 -46 15 -72 -5 -31 -23 -45 -25 -50 -9 -2 7 -36 12 -86
13 l-82 3 0 -78 0 -78 52 -5 c51 -5 399 -30 578 -41 47 -3 144 -10 215 -15 72
-5 227 -17 345 -25 118 -8 274 -20 345 -25 174 -14 338 -26 525 -40 383 -29
251 -34 -225 -10 -482 25 -587 31 -805 45 -217 14 -595 35 -902 51 l-128 6 0
-65 0 -65 62 -6 c35 -3 167 -11 293 -16 127 -6 302 -15 390 -21 88 -5 239 -14
337 -18 97 -5 180 -11 185 -14 4 -3 107 -10 228 -16 773 -40 1399 -86 1389
-103 -3 -5 -13 -7 -22 -4 -10 3 -136 8 -282 11 -146 3 -335 10 -420 16 -85 5
-252 14 -370 19 -118 6 -222 12 -230 14 -8 3 -76 7 -150 11 -74 3 -227 12
-340 20 -113 8 -320 21 -460 30 -140 8 -305 20 -366 25 -61 6 -141 10 -178 10
l-66 0 2 -192 3 -192 30 -8 c17 -4 54 -9 84 -11 58 -4 72 -17 60 -57 -6 -23
-7 -23 -8 -3 -1 12 -6 25 -13 29 -7 4 -8 3 -4 -4 4 -6 0 -25 -9 -41 -8 -17
-15 -48 -15 -71 0 -45 -10 -49 -47 -20 -32 25 -38 25 -63 -2 -27 -29 -27 -78
0 -78 13 0 20 7 20 20 0 11 7 20 15 20 18 0 20 -16 2 -24 -8 -3 -7 -9 6 -20
20 -15 67 -98 67 -116 0 -14 -42 -12 -62 4 -22 16 -23 39 -2 57 14 12 14 14
-1 25 -9 7 -23 10 -31 7 -16 -6 -19 -39 -4 -48 6 -4 8 -15 5 -26 -4 -12 -2
-19 7 -19 9 -1 9 -4 -3 -13 -9 -7 -19 -33 -22 -59 -5 -38 -3 -49 10 -57 13 -7
14 -12 6 -23 -14 -16 -9 -64 9 -85 10 -13 10 -17 1 -20 -18 -6 -16 -30 2 -37
25 -9 17 -24 -10 -18 -17 3 -27 -1 -31 -13 -8 -19 12 -36 33 -28 10 4 10 -1
-2 -23 -8 -16 -15 -39 -15 -52 0 -12 -5 -30 -11 -40 -9 -15 -6 -26 15 -60 14
-23 26 -46 26 -52 0 -5 7 -10 15 -10 8 0 15 -7 15 -15 0 -17 28 -77 40 -85 13
-9 17 -35 8 -52 -6 -13 -1 -32 17 -65 18 -35 25 -63 25 -105 0 -32 4 -58 9
-58 13 0 25 -40 14 -51 -4 -4 -44 -10 -88 -13 -44 -3 -86 -6 -92 -7 -10 -2
-13 -138 -13 -641 l0 -638 338 0 c185 0 361 3 391 7 l53 6 -5 54 c-4 42 -11
58 -31 74 -20 16 -26 29 -26 60 0 41 6 44 68 39 17 -1 22 4 22 23 0 28 31 64
88 102 22 14 43 37 46 49 3 14 21 30 46 41 39 17 42 17 58 1 15 -15 15 -18 2
-26 -13 -9 -13 -10 0 -11 8 0 24 -3 35 -6 11 -3 57 -7 102 -9 45 -1 91 -8 102
-13 11 -6 28 -11 39 -11 11 0 25 -6 31 -14 10 -12 3 -15 -38 -21 -27 -4 -74
-2 -103 4 -29 6 -64 10 -78 9 -14 0 -49 1 -77 2 -68 4 -88 -13 -96 -81 -7 -57
10 -207 25 -226 5 -7 7 -21 3 -33 l-6 -20 3045 0 3046 0 0 25 c0 41 -32 97
-52 92 -26 -7 -162 64 -167 87 -2 11 -8 25 -15 31 -6 7 -10 33 -8 62 4 48 5
51 40 61 48 14 116 10 137 -8 17 -14 28 -21 83 -52 17 -10 64 -23 104 -30 46
-7 85 -20 106 -35 27 -21 32 -30 32 -67 0 -24 -4 -56 -9 -72 -5 -16 -12 -44
-15 -61 l-5 -33 854 0 855 0 0 195 0 194 -37 6 c-21 3 -58 10 -83 16 -25 6
-78 17 -119 25 -69 12 -119 34 -78 34 9 0 17 7 17 15 0 8 -9 15 -19 15 -18 0
-19 3 -9 33 15 45 26 54 80 60 32 5 49 2 57 -7 6 -8 43 -16 84 -20 39 -4 80
-9 90 -12 16 -5 17 118 17 2491 0 2347 -1 2497 -17 2523 -10 15 -21 29 -25 32
-4 3 -16 28 -28 55 -40 93 -74 155 -86 155 -7 0 -21 11 -32 25 -26 33 -58 33
-66 0 -4 -14 -11 -23 -16 -20 -6 4 -7 17 -4 31 6 23 -17 64 -36 64 -12 0 -60
-81 -60 -101 0 -10 -4 -19 -8 -19 -9 0 -17 -16 -62 -112 -12 -27 -26 -48 -31
-48 -6 0 -15 -13 -20 -30 -8 -21 -20 -32 -42 -38 -22 -6 -33 -17 -41 -40 -7
-18 -17 -37 -24 -41 -7 -4 -12 -14 -10 -21 2 -7 -7 -19 -20 -25 -12 -7 -33
-22 -46 -34 -30 -29 -81 -26 -81 4 0 13 7 20 20 21 55 2 56 3 43 24 -7 11 -18
20 -24 20 -6 0 -17 7 -24 15 -6 8 -15 14 -18 13 -19 -2 -32 3 -32 12 0 6 11 8
25 4 30 -7 34 1 38 74 5 72 -8 87 -75 88 -76 2 -78 2 -78 19 0 25 -36 84 -77
128 -22 23 -42 50 -45 59 -4 10 -14 15 -26 11 -10 -2 -27 3 -36 12 -9 10 -19
16 -20 14 -5 -5 -41 -69 -73 -128 -36 -68 -99 -148 -133 -167 -16 -10 -33 -26
-36 -36 -3 -10 -17 -20 -32 -24 -15 -3 -35 -9 -44 -15 -32 -17 -65 -10 -82 16
-9 14 -23 25 -30 25 -8 0 -19 12 -25 28 -29 69 -52 102 -70 102 -11 0 -23 -4
-26 -10 -11 -18 -23 -11 -46 28 -12 20 -31 45 -41 55 -10 10 -18 29 -18 44 0
21 -2 23 -15 13 -17 -14 -36 -5 -29 14 6 16 -57 58 -77 52 -8 -2 -26 -7 -41
-10 -15 -4 -37 -16 -49 -29 -12 -12 -18 -15 -14 -7 4 8 -11 -5 -34 -30 -24
-25 -76 -79 -117 -121 -41 -41 -74 -80 -74 -87 0 -6 -6 -9 -14 -6 -8 3 -19 -3
-26 -15 -14 -27 -42 -27 -65 -1 -17 19 -17 20 0 20 10 0 15 3 11 7 -4 4 -19 7
-33 8 -33 0 -90 70 -130 158 -14 32 -36 66 -49 76 -44 35 -56 84 -55 241 0
208 29 618 46 656 12 28 19 32 72 38 189 23 1018 9 1213 -21 58 -9 164 -20
235 -24 183 -12 231 -17 277 -29 37 -10 41 -9 64 15 22 24 30 26 107 25 80 -2
147 -15 158 -31 3 -5 32 -13 65 -18 32 -6 79 -14 104 -20 25 -6 82 -10 128
-11 l82 0 0 55 c0 36 -4 57 -12 59 -7 2 -31 8 -53 12 -22 5 -40 14 -39 19 0 6
24 21 52 35 l52 25 0 1058 0 1057 -315 0 c-287 0 -317 -2 -333 -17 -10 -10
-33 -29 -51 -43 -35 -26 -61 -47 -100 -80 -13 -11 -32 -20 -43 -20 -10 0 -18
-7 -18 -15 0 -8 -9 -19 -19 -25 -27 -14 -31 -13 -25 8 5 16 5 16 -6 0 -12 -20
-50 -24 -50 -6 0 7 -5 6 -12 -3 -7 -9 -25 -23 -40 -32 l-26 -16 8 29 c10 36
-6 31 -20 -6 -9 -23 -13 -24 -119 -24 -72 0 -112 -4 -117 -12 -5 -8 -52 -10
-168 -6 -178 6 -211 2 -211 -27 0 -11 -8 -21 -18 -23 -9 -2 -17 -8 -17 -13 0
-12 -37 -12 -45 1 -3 5 -31 10 -61 10 -34 0 -53 4 -49 10 3 6 17 10 31 10 28
0 34 34 8 44 -29 11 -44 6 -44 -15 0 -21 -4 -21 -70 -17 -40 3 -70 1 -70 -4 0
-5 4 -7 9 -3 5 3 12 1 16 -5 13 -21 -23 -20 -58 0 -38 22 -57 20 -57 -7 0 -12
-6 -14 -27 -8 -38 11 -186 6 -198 -6 -11 -11 -222 -12 -229 0 -3 4 -47 11 -97
15 -51 4 -111 11 -133 16 -38 9 -136 23 -566 82 -85 11 -211 21 -280 22 -69 1
-130 5 -136 8 -30 19 -169 33 -349 34 -261 2 -351 9 -382 29 -21 14 -30 15
-55 4 -29 -12 -46 -11 -323 10 -55 5 -113 14 -130 20 -16 7 -55 17 -85 22
-268 47 -337 50 -1212 56 l-558 4 0 -25 c0 -14 -4 -26 -10 -26 -5 0 -10 11
-10 25 l0 25 -658 0 -658 0 -11 -30z m7244 -225 c-29 -28 -49 -33 -41 -10 4 8
15 15 25 15 11 0 22 7 26 15 3 9 8 13 11 10 3 -3 -6 -17 -21 -30z m-3850 -54
c48 -31 73 -64 59 -78 -3 -3 7 -22 22 -42 15 -20 33 -53 40 -74 15 -41 7 -81
-13 -73 -8 3 -11 -2 -8 -15 3 -10 2 -36 -2 -56 l-8 -38 -11 28 c-13 30 -26 26
-26 -9 0 -13 -4 -26 -10 -29 -5 -3 -10 -42 -10 -85 0 -43 -4 -82 -10 -85 -15
-9 -12 -25 4 -25 8 0 17 -7 20 -16 5 -14 1 -15 -21 -10 -40 10 -215 7 -298 -5
-76 -10 -93 -21 -97 -59 l-3 -25 188 -2 c159 -1 192 -4 215 -18 43 -28 92 -86
92 -109 0 -12 14 -36 30 -54 34 -38 36 -42 15 -42 -9 0 -15 -10 -15 -26 0 -14
-7 -41 -16 -60 -12 -24 -14 -47 -9 -86 13 -112 13 -180 -1 -214 -18 -43 -18
-54 2 -54 13 0 15 -6 9 -27 -4 -16 -8 -29 -9 -30 -1 -2 -38 -5 -81 -8 -43 -3
-81 -7 -83 -10 -3 -3 -3 -37 -1 -77 8 -172 5 -216 -16 -232 -11 -8 -33 -18
-48 -21 -29 -7 -77 -48 -77 -66 0 -5 8 -13 17 -16 10 -4 28 -17 41 -30 29 -29
63 -37 115 -28 23 5 66 9 95 9 48 1 56 -2 74 -27 14 -19 23 -25 28 -17 5 8 10
2 14 -14 4 -15 11 -24 16 -21 6 3 10 0 10 -7 0 -7 5 -31 11 -52 8 -30 13 -36
21 -25 13 19 2 -119 -19 -231 -8 -47 -17 -96 -19 -110 -10 -56 -56 -267 -65
-297 -6 -18 -14 -33 -19 -33 -11 0 -70 75 -70 89 0 38 -63 144 -247 411 -17
25 -52 86 -78 136 l-46 91 -95 6 c-100 6 -149 25 -179 71 -8 11 -19 67 -24
123 -6 56 -19 135 -30 175 -11 40 -23 109 -27 153 -4 44 -19 123 -34 175 -38
130 -41 155 -29 235 15 97 13 125 -17 222 -15 46 -23 87 -20 91 4 4 42 12 84
17 69 9 77 12 80 33 7 49 -48 68 -109 37 -46 -24 -65 1 -35 48 7 12 21 56 31
97 35 154 86 270 166 376 56 76 120 124 207 156 68 25 88 27 177 25 94 -2 103
-5 152 -36z m3243 -1 c0 -5 -4 -10 -9 -10 -6 0 -13 5 -16 10 -3 6 1 10 9 10 9
0 16 -4 16 -10z m230 6 c0 -3 -4 -8 -10 -11 -5 -3 -10 -1 -10 4 0 6 5 11 10
11 6 0 10 -2 10 -4z m220 0 c0 -2 -7 -6 -15 -10 -8 -3 -15 -1 -15 4 0 6 7 10
15 10 8 0 15 -2 15 -4z m-7306 -232 c22 -9 20 -24 -3 -24 -21 0 -34 13 -24 24
8 7 8 7 27 0z m1406 -94 c0 -5 -5 -10 -11 -10 -5 0 -7 5 -4 10 3 6 8 10 11 10
2 0 4 -4 4 -10z m-1340 -30 c0 -5 -5 -10 -11 -10 -5 0 -7 5 -4 10 3 6 8 10 11
10 2 0 4 -4 4 -10z m1332 -25 c-3 -17 -8 -23 -14 -17 -11 11 -1 55 11 47 5 -2
6 -16 3 -30z m-1253 -29 c24 -45 -8 -63 -35 -20 -15 22 -15 27 -3 35 21 13 24
11 38 -15z m98 -17 c9 -9 19 -9 42 1 28 11 33 10 63 -15 55 -46 77 -108 28
-77 -11 7 -28 12 -38 12 -11 0 -36 13 -57 30 -20 16 -41 27 -46 24 -5 -3 -18
-2 -30 1 -16 5 -18 10 -8 21 14 17 31 18 46 3z m1163 -49 c14 -10 21 -22 17
-26 -11 -11 -57 14 -57 31 0 20 10 19 40 -5z m107 -50 c3 -11 13 -20 22 -21 9
0 11 -3 4 -5 -13 -6 -68 20 -78 36 -4 6 5 10 20 10 18 0 29 -6 32 -20z m-127
-64 c0 -14 -5 -28 -11 -32 -17 -10 -32 12 -24 35 9 29 35 27 35 -3z m253 17
c-7 -2 -21 -2 -30 0 -10 3 -4 5 12 5 17 0 24 -2 18 -5z m2044 1 c-3 -3 -12 -4
-19 -1 -8 3 -5 6 6 6 11 1 17 -2 13 -5z m-2237 -24 c22 -14 0 -30 -27 -19 -13
4 -23 13 -23 19 0 13 30 13 50 0z m-89 -93 c-16 -16 -26 0 -10 19 9 11 15 12
17 4 2 -6 -1 -17 -7 -23z m613 8 c3 -8 15 -15 26 -15 23 0 27 -18 6 -26 -8 -3
-28 8 -45 25 -27 26 -29 31 -12 31 10 0 21 -7 25 -15z m-1354 -46 c0 -10 -4
-19 -9 -19 -12 0 -23 29 -15 41 8 14 24 0 24 -22z m720 -18 c0 -6 -4 -13 -10
-16 -5 -3 -10 1 -10 9 0 9 5 16 10 16 6 0 10 -4 10 -9z m-1275 -50 c-3 -6 -14
-11 -23 -11 -13 0 -13 2 4 14 21 15 30 14 19 -3z m-325 -22 c0 -24 -23 -21
-28 4 -2 10 3 17 12 17 10 0 16 -9 16 -21z m1590 -10 c0 -11 -4 -17 -10 -14
-5 3 -10 13 -10 21 0 8 5 14 10 14 6 0 10 -9 10 -21z m690 1 c12 -8 9 -10 -12
-10 -16 0 -28 5 -28 10 0 13 20 13 40 0z m-1126 -49 c70 -39 20 -58 -53 -19
-51 27 -56 53 -8 43 17 -4 45 -14 61 -24z m1205 16 c17 -22 1 -28 -30 -11 -16
8 -29 17 -29 19 0 11 48 4 59 -8z m71 -41 c0 -11 -19 -15 -25 -6 -3 5 1 10 9
10 9 0 16 -2 16 -4z m-1410 -254 c0 -5 -13 -18 -29 -30 -22 -16 -32 -18 -37
-10 -4 7 -3 13 3 15 6 2 19 10 29 18 22 16 34 19 34 7z m2990 -360 c-9 -21
-13 -23 -21 -11 -7 11 -9 9 -9 -8 0 -46 -29 -12 -30 34 0 7 12 18 28 25 23 12
28 12 36 0 5 -8 3 -25 -4 -40z m-4050 -16 c0 -3 -4 -8 -10 -11 -5 -3 -10 -1
-10 4 0 6 5 11 10 11 6 0 10 -2 10 -4z m3917 -148 c-2 -18 -4 -6 -4 27 0 33 2
48 4 33 2 -15 2 -42 0 -60z m103 68 c0 -8 -4 -18 -10 -21 -5 -3 -10 3 -10 14
0 12 5 21 10 21 6 0 10 -6 10 -14z m2370 -6 c0 -6 -7 -13 -15 -16 -24 -10 -17
-24 11 -24 14 0 23 -4 20 -8 -5 -8 -115 -6 -124 3 -10 10 30 44 57 48 48 7 51
7 51 -3z m170 -9 c-46 -13 -2 -23 48 -12 74 18 241 -2 250 -28 2 -6 17 -11 33
-11 19 0 29 -5 29 -15 0 -21 12 -19 66 10 52 28 97 31 224 15 41 -5 134 -14
205 -20 188 -15 193 -16 210 -50 25 -49 20 -60 -27 -60 -68 0 -393 30 -503 46
-97 15 -133 19 -449 49 -83 8 -154 19 -160 25 -7 7 -6 10 2 10 7 0 12 6 12 13
0 22 23 37 55 36 29 -1 29 -1 5 -8z m-2622 -130 c3 -8 -1 -12 -9 -9 -7 2 -15
10 -17 17 -3 8 1 12 9 9 7 -2 15 -10 17 -17z m4227 -1 c182 -14 240 -25 275
-52 47 -37 39 -56 -22 -60 -125 -7 -558 49 -585 75 -6 6 29 18 65 22 14 1 28
8 30 14 5 14 57 14 237 1z m-5600 -280 c18 -8 18 -9 -5 -9 -14 0 -34 4 -45 9
-18 8 -18 9 5 9 14 0 34 -4 45 -9z m2889 -220 c-2 -70 -4 -80 -18 -80 -20 0
-26 24 -19 76 4 34 10 44 22 42 11 -2 16 -14 15 -38z m-3641 -26 c9 -9 -4 -35
-14 -28 -5 3 -9 12 -9 20 0 14 12 19 23 8z m2460 -111 c-3 -32 -7 -60 -9 -62
-9 -10 -44 34 -44 53 0 27 27 66 45 66 11 0 12 -13 8 -57z m-1973 23 c0 -3 -4
-16 -10 -30 -7 -19 -17 -26 -36 -26 -15 0 -24 3 -21 7 4 3 2 12 -4 20 -9 10
-7 13 9 13 12 0 24 5 27 10 6 10 35 14 35 6z m227 -30 c23 -7 35 -29 27 -48
-10 -24 -54 -49 -75 -43 -26 9 -45 55 -27 67 7 4 9 8 3 8 -5 0 -3 5 5 11 12 9
13 12 1 16 -11 5 -11 7 0 14 8 5 20 3 29 -5 8 -8 25 -17 37 -20z m-352 -20 c0
-43 -18 -58 -33 -29 -15 27 -3 75 17 71 11 -2 16 -14 16 -42z m1511 7 c31 -33
42 -72 23 -83 -7 -5 -16 -7 -20 -4 -12 7 -19 -47 -26 -196 -4 -95 -11 -157
-21 -180 -9 -19 -15 -41 -13 -48 1 -7 -5 -19 -14 -28 -13 -14 -15 -13 -15 5 0
12 5 21 11 21 8 0 8 4 1 13 -7 8 -7 56 0 157 10 147 13 263 8 312 -2 28 14 58
32 58 5 0 20 -12 34 -27z m1822 -10 c24 -60 -14 -125 -54 -92 -16 13 -17 72
-2 102 13 26 44 21 56 -10z m-2824 -9 c19 -7 21 -30 4 -37 -17 -6 -78 3 -78
12 0 24 41 38 74 25z m-837 -100 c-3 -3 -12 -4 -19 -1 -8 3 -5 6 6 6 11 1 17
-2 13 -5z m393 -65 c0 -6 7 -9 15 -5 8 3 15 2 15 -3 0 -12 -66 -24 -90 -16
-11 4 -17 12 -13 21 6 17 73 20 73 3z m717 -21 c-3 -8 -6 -5 -6 6 -1 11 2 17
5 13 3 -3 4 -12 1 -19z m-2124 -5 c-7 -2 -19 -2 -25 0 -7 3 -2 5 12 5 14 0 19
-2 13 -5z m-12 -43 c10 -6 19 -16 19 -22 0 -6 7 -20 17 -30 9 -10 21 -28 28
-41 8 -16 18 -21 38 -19 20 2 25 -1 21 -13 -4 -10 0 -15 14 -15 29 0 38 -19
16 -34 -18 -14 -12 -36 11 -36 47 0 126 -145 111 -204 -4 -15 -2 -26 3 -26 18
0 41 -31 41 -55 0 -18 -4 -22 -19 -18 -10 3 -22 0 -25 -5 -12 -20 6 -41 37
-44 27 -2 33 -8 35 -30 3 -29 -6 -36 -24 -18 -13 13 -100 22 -126 14 -21 -6
-24 -34 -6 -52 10 -10 7 -16 -10 -28 -26 -18 -29 -49 -6 -62 13 -7 8 -11 -22
-16 -43 -7 -84 -36 -84 -59 0 -9 14 -25 31 -38 22 -15 27 -25 20 -32 -6 -6
-11 -26 -11 -44 0 -26 -5 -34 -25 -39 -30 -7 -31 -15 -5 -39 12 -11 20 -31 20
-51 0 -18 5 -36 10 -39 29 -18 -21 -36 -100 -35 -41 1 -52 15 -45 57 4 25 2
33 -13 37 -10 4 -29 17 -41 30 l-23 24 22 12 c14 8 41 10 70 6 55 -7 64 -2 45
28 -13 20 -13 25 0 42 16 21 20 64 6 64 -6 0 -13 -4 -16 -10 -10 -17 -61 -11
-88 10 -30 24 -41 25 -58 4 -19 -23 -67 -10 -109 31 -25 25 -39 32 -50 25 -12
-8 -12 -11 3 -28 9 -10 17 -24 17 -30 0 -14 -32 -32 -58 -32 -10 0 -27 -10
-39 -23 -17 -20 -29 -23 -78 -23 -37 1 -60 6 -63 14 -2 7 6 12 20 12 22 1 22
1 4 15 -16 12 -17 17 -6 30 10 12 7 18 -18 32 -23 13 -33 27 -38 56 -5 31 -12
41 -34 49 l-29 10 20 34 c10 19 19 43 19 54 0 11 9 25 19 32 15 9 17 15 9 25
-18 23 -1 26 42 9 53 -21 58 -20 29 5 -37 32 -79 51 -103 46 -11 -2 -32 -1
-46 3 -22 7 -21 8 13 9 20 1 37 6 37 11 0 6 -4 10 -10 10 -5 0 -10 5 -10 10 0
27 118 -18 154 -59 22 -25 38 -28 29 -5 -10 28 -126 114 -153 114 -14 0 -31 5
-38 12 -13 13 -181 18 -188 6 -9 -14 -24 -9 -24 7 0 9 7 30 16 46 15 30 16 30
72 23 31 -4 66 -7 77 -6 24 3 125 -29 125 -39 0 -4 11 -10 24 -13 14 -3 48
-31 77 -61 52 -55 69 -66 69 -42 0 17 -128 140 -165 159 -57 29 -166 60 -196
56 -37 -6 -38 10 -2 44 27 25 31 26 88 16 33 -5 74 -16 92 -24 17 -8 35 -14
41 -14 5 0 48 -40 95 -90 75 -78 107 -104 107 -85 0 13 -26 61 -37 68 -7 4
-13 12 -13 18 0 24 -46 79 -67 79 -28 0 -28 5 -4 31 l19 21 66 -52 c36 -28 75
-69 88 -91 32 -57 48 -54 25 6 -46 118 -178 221 -274 213 -45 -4 -55 17 -13
26 18 3 44 14 58 24 59 41 229 54 313 25 l49 -18 27 28 c32 31 28 30 54 17z
m3467 -270 c0 -107 -2 -202 -6 -210 -4 -8 -17 -16 -30 -17 -21 -3 -22 0 -18
30 3 17 8 75 11 127 3 52 11 145 17 205 16 154 26 104 26 -135z m-1292 119 c6
-57 9 -64 27 -64 7 0 16 -10 22 -22 5 -13 13 -23 18 -23 11 0 54 49 72 82 17
31 52 45 69 28 8 -8 7 -15 -7 -25 -17 -12 -17 -15 -3 -44 9 -16 16 -42 16 -56
0 -21 4 -25 19 -20 21 6 35 -21 47 -89 5 -30 4 -38 -7 -34 -7 2 -16 15 -20 29
l-6 24 -13 -27 c-7 -15 -22 -31 -33 -34 -11 -4 -25 -10 -31 -15 -77 -62 -72
-60 -143 -59 -37 1 -83 1 -101 1 -26 -1 -34 4 -42 24 -6 17 -16 25 -27 23 -15
-2 -17 3 -14 27 1 16 9 38 17 49 8 11 14 32 14 46 0 15 11 36 24 49 17 16 28
42 36 89 14 74 36 120 52 104 5 -5 12 -33 14 -63z m-2016 41 c0 -5 -5 -10 -11
-10 -5 0 -7 5 -4 10 3 6 8 10 11 10 2 0 4 -4 4 -10z m-703 -26 c40 -11 14 -24
-48 -24 -54 0 -77 11 -46 23 17 8 68 8 94 1z m1905 -21 c40 -44 60 -92 66
-160 9 -115 -60 -233 -136 -233 -27 0 -27 4 0 49 20 32 22 47 21 170 -1 98 -5
136 -15 142 -10 7 -10 9 0 9 6 0 12 8 12 18 0 39 18 41 52 5z m1813 -13 c-5
-15 0 -26 17 -40 18 -15 21 -21 11 -31 -7 -7 -13 -23 -13 -36 0 -13 -4 -23 -9
-23 -4 0 -6 11 -4 24 3 13 0 27 -6 30 -12 8 -15 78 -4 89 12 12 14 7 8 -13z
m10 -192 c-5 -18 -8 -48 -7 -65 0 -18 -4 -33 -9 -33 -10 0 -13 113 -2 123 16
17 25 5 18 -25z m3926 -36 c-7 -2 -18 1 -23 6 -8 8 -4 9 13 5 13 -4 18 -8 10
-11z m-7767 -19 l30 -5 -25 -13 c-13 -8 -24 -19 -24 -27 0 -9 -22 -14 -75 -18
-41 -3 -81 -9 -87 -13 -23 -15 -32 2 -21 36 12 34 27 49 40 41 4 -3 16 0 25 5
17 10 66 8 137 -6z m7770 1 c11 -4 16 -19 16 -45 0 -46 -16 -48 -42 -6 -10 15
-22 27 -28 27 -20 0 -10 19 13 23 12 2 23 5 24 6 1 0 8 -2 17 -5z m-7769 -105
l30 -9 -30 4 c-43 6 -64 -8 -48 -33 15 -25 8 -27 -82 -30 -42 -1 -79 -8 -94
-18 -35 -22 -43 -3 -19 45 15 28 27 41 36 37 8 -3 20 -1 26 4 24 19 117 19
181 0z m2783 -24 c-11 -12 -68 -23 -73 -15 -3 5 9 11 27 13 18 2 37 5 42 5 5
1 7 0 4 -3z m224 -95 c9 -10 18 -33 20 -51 3 -30 7 -35 38 -40 48 -8 80 -20
80 -29 0 -10 -26 -20 -53 -20 -22 1 -22 1 -3 15 20 15 10 20 -18 9 -9 -3 -13
-10 -10 -15 3 -5 -3 -9 -13 -9 -15 0 -14 -4 7 -20 l25 -20 -28 0 c-21 0 -30 6
-34 20 -4 14 -14 20 -37 21 -17 1 -23 3 -13 6 37 10 14 22 -45 25 l-63 3 3 35
c2 21 13 45 29 62 38 40 80 43 115 8z m-3077 -1 c5 -6 2 -9 -8 -9 -20 0 -22
-11 -6 -27 11 -11 9 -12 -111 -27 -19 -2 -45 -7 -58 -11 -21 -7 -23 -5 -20 20
3 30 44 60 89 67 36 5 103 -3 114 -13z m1105 -50 c0 -29 -1 -29 -41 -23 -36 6
-41 5 -38 -11 4 -20 53 -38 80 -30 12 4 20 -3 28 -26 l11 -31 -58 7 c-46 5
-61 3 -71 -9 -21 -25 -5 -34 71 -41 71 -7 88 -15 88 -44 0 -11 -10 -12 -47 -6
-27 3 -67 7 -90 7 -29 1 -43 6 -43 15 0 7 -4 13 -10 13 -5 0 -10 -11 -10 -25
0 -14 -5 -25 -12 -25 -6 0 -22 -10 -35 -22 -25 -23 -44 -18 -23 7 8 9 10 29 7
49 -5 29 -3 33 13 29 15 -4 17 2 16 35 0 25 6 47 17 59 23 26 21 48 -5 65
l-22 15 24 14 c32 17 121 28 138 16 6 -5 12 -22 12 -38z m-1127 -61 c-4 -7 -8
-22 -8 -33 0 -18 -9 -21 -85 -26 -47 -3 -92 -9 -101 -13 -24 -11 -29 5 -14 41
15 36 27 39 143 42 56 1 71 -2 65 -11z m2887 -18 c0 -5 -5 -10 -11 -10 -5 0
-7 5 -4 10 3 6 8 10 11 10 2 0 4 -4 4 -10z m140 0 c13 -9 13 -10 0 -11 -8 -1
-28 0 -44 1 -25 2 -28 -1 -23 -19 3 -12 1 -21 -4 -21 -5 0 -9 -7 -9 -15 0 -19
24 -20 39 -1 9 11 9 15 -1 18 -7 3 -3 7 9 10 16 4 23 0 27 -17 5 -18 12 -22
43 -22 50 1 95 -11 88 -23 -3 -6 -32 -10 -64 -10 -32 0 -61 -3 -64 -7 -4 -3 2
-17 14 -29 26 -28 20 -64 -16 -100 -20 -20 -34 -24 -80 -24 -60 0 -73 16 -34
43 18 13 19 18 9 37 -7 14 -10 39 -6 62 5 33 3 41 -12 45 -10 2 -24 13 -30 24
-11 18 -10 19 13 13 23 -6 25 -3 25 25 0 31 0 31 53 31 28 0 59 -5 67 -10z
m481 -304 c0 -319 -7 -376 -44 -376 -20 0 -20 -4 -12 -287 10 -335 10 -389 -3
-423 l-9 -25 -17 32 c-21 41 -21 172 -1 307 8 55 15 168 15 255 0 112 8 210
26 346 14 105 28 254 31 333 3 79 7 141 10 138 3 -2 4 -138 4 -300z m-251 230
c0 -8 -15 -16 -37 -19 -52 -9 -65 5 -18 19 53 16 55 16 55 0z m-3304 -14 c14
-9 28 -52 17 -53 -4 -1 -52 -4 -106 -8 l-97 -6 0 27 c0 22 6 29 33 37 39 11
138 13 153 3z m544 -17 c0 -15 11 -36 26 -50 28 -26 38 -85 17 -92 -8 -3 -13
4 -13 16 0 33 -22 74 -32 59 -6 -10 -8 -8 -8 5 0 26 -14 21 -57 -22 -43 -41
-93 -57 -144 -46 -30 7 -39 28 -17 41 6 4 38 8 69 10 69 2 113 29 122 74 8 38
37 41 37 5z m935 -95 c-20 -50 -35 -98 -32 -108 2 -9 -3 -29 -10 -44 -7 -16
-10 -28 -6 -29 5 -1 17 -2 28 -3 14 -1 19 -7 18 -22 -2 -18 5 -23 34 -29 26
-5 33 -9 23 -15 -8 -5 -27 -6 -42 -3 -20 4 -29 1 -34 -11 -4 -10 -18 -16 -35
-16 -19 0 -29 -5 -29 -15 0 -10 10 -15 27 -15 35 0 25 -9 -18 -14 -46 -6 -69
-16 -70 -30 -2 -44 -10 -70 -24 -80 -9 -6 -17 -28 -18 -49 -2 -21 -7 -41 -12
-45 -6 -4 -18 -24 -29 -44 -10 -20 -24 -39 -31 -42 -11 -4 -187 166 -208 201
-4 7 -1 26 8 42 8 17 15 39 15 51 0 16 6 20 30 20 26 0 35 8 32 31 -1 4 10 10
23 13 18 5 25 13 25 31 0 18 5 25 19 25 10 0 21 9 24 19 2 11 15 21 28 23 15
2 30 17 43 41 11 20 27 37 35 37 9 1 61 43 116 95 55 53 101 91 103 86 2 -6
-13 -51 -33 -101z m92 68 c-3 -8 -6 -5 -6 6 -1 11 2 17 5 13 3 -3 4 -12 1 -19z
m1343 13 c0 -6 -4 -13 -10 -16 -5 -3 -10 1 -10 9 0 9 5 16 10 16 6 0 10 -4 10
-9z m-40 -55 c0 -25 7 -38 25 -50 30 -20 32 -36 6 -36 -32 0 -71 79 -57 116 9
25 26 6 26 -30z m1332 -139 c3 -122 -3 -157 -22 -127 -8 12 -10 9 -10 -10 0
-15 -4 -30 -9 -35 -5 -6 -11 -21 -14 -35 -9 -49 -7 43 3 134 13 131 33 228 42
212 4 -7 9 -70 10 -139z m-4305 122 c54 0 115 -18 120 -36 6 -18 -35 -27 -112
-26 -75 2 -95 14 -95 60 0 20 3 22 19 13 11 -5 41 -10 68 -11z m1289 1 c56 0
73 -3 78 -16 14 -35 0 -37 -147 -12 -67 11 -83 20 -72 37 3 6 18 6 38 0 17 -5
64 -9 103 -9z m-1099 -46 c-3 -3 -12 -4 -19 -1 -8 3 -5 6 6 6 11 1 17 -2 13
-5z m583 -30 c0 -8 -4 -12 -10 -9 -5 3 -10 10 -10 16 0 5 5 9 10 9 6 0 10 -7
10 -16z m340 1 c0 -8 -4 -15 -9 -15 -13 0 -22 16 -14 24 11 11 23 6 23 -9z
m-971 -47 c11 -8 17 -19 13 -24 -9 -13 -101 -32 -167 -36 -54 -3 -63 8 -51 56
5 21 10 22 95 20 58 -1 97 -7 110 -16z m961 -8 c0 -16 -7 -20 -30 -20 -32 0
-37 9 -18 28 19 19 48 15 48 -8z m540 -20 c0 -5 -6 -10 -14 -10 -8 0 -18 5
-21 10 -3 6 3 10 14 10 12 0 21 -4 21 -10z m-536 -41 c-3 -5 -10 -7 -15 -3 -5
3 -7 10 -3 15 3 5 10 7 15 3 5 -3 7 -10 3 -15z m636 11 c0 -5 -4 -10 -10 -10
-5 0 -10 5 -10 10 0 6 5 10 10 10 6 0 10 -4 10 -10z m-690 -4 c0 -11 -19 -15
-25 -6 -3 5 1 10 9 10 9 0 16 -2 16 -4z m-110 -26 c0 -5 -2 -10 -4 -10 -3 0
-8 5 -11 10 -3 6 -1 10 4 10 6 0 11 -4 11 -10z m860 -54 c0 -11 -19 -15 -25
-6 -3 5 1 10 9 10 9 0 16 -2 16 -4z m-105 -86 c3 -5 -1 -10 -10 -10 -9 0 -13
5 -10 10 3 6 8 10 10 10 2 0 7 -4 10 -10z m815 -4 c0 -50 -58 -228 -99 -306
-14 -25 -27 -18 -87 48 l-57 63 54 56 c65 66 166 153 180 153 5 0 9 -6 9 -14z
m466 -12 c4 -14 3 -42 -1 -62 -4 -20 -12 -71 -19 -112 -16 -98 -20 -105 -51
-74 -30 30 -32 54 -6 61 21 5 41 72 41 136 0 69 23 102 36 51z m196 -37 c-13
-48 -19 -58 -34 -54 -20 6 -26 -19 -5 -26 9 -3 9 -9 1 -23 -16 -28 -28 -27
-42 6 -12 25 -11 34 2 61 9 18 16 37 16 44 0 9 70 55 77 51 1 -1 -6 -27 -15
-59z m-1604 -24 c6 -19 -35 -16 -42 3 -4 11 0 15 16 12 12 -2 23 -9 26 -15z
m-68 -1 c0 -4 -10 -16 -22 -27 l-23 -20 29 -5 c16 -3 31 -11 34 -17 4 -15 -10
-17 -23 -4 -6 5 -23 11 -40 13 -32 3 -51 38 -21 38 9 0 16 7 16 15 0 9 9 15
25 15 14 0 25 -3 25 -8z m-672 -80 c2 -7 -3 -12 -12 -12 -9 0 -16 7 -16 16 0
17 22 14 28 -4z m-758 -2 c0 -5 -7 -10 -16 -10 -8 0 -12 5 -9 10 3 6 10 10 16
10 5 0 9 -4 9 -10z m1395 -31 c-9 -14 -32 -11 -38 5 -3 8 -3 17 0 20 9 9 44
-14 38 -25z m115 -29 c0 -6 -11 -10 -24 -10 -23 0 -24 -2 -13 -31 8 -20 13
-25 15 -15 2 9 7 16 12 16 12 0 -1 -41 -14 -45 -6 -2 -38 -6 -70 -9 -63 -6
-71 -9 -62 -24 5 -8 29 -11 138 -16 32 -1 38 -20 8 -22 -37 -3 -40 -4 -40 -18
0 -16 30 -25 80 -26 l35 -1 -34 -18 c-19 -10 -43 -16 -53 -13 -24 6 -24 -23 0
-37 16 -9 16 -10 -1 -16 -13 -6 -28 5 -60 41 -23 26 -66 71 -94 100 -62 60
-72 90 -24 64 14 -7 23 -5 36 10 18 19 17 20 -6 21 -13 0 -18 3 -11 6 6 2 12
12 12 20 0 13 8 15 43 10 48 -7 73 4 64 26 -3 8 -3 18 0 21 8 7 63 -22 63 -34z
m-730 -10 c0 -12 -8 -12 -35 0 -18 8 -17 9 8 9 15 1 27 -3 27 -9z m800 1 c0
-9 -24 -21 -41 -21 -5 0 -9 7 -9 15 0 9 9 15 25 15 14 0 25 -4 25 -9z m55 -81
c3 -5 1 -10 -4 -10 -6 0 -11 5 -11 10 0 6 2 10 4 10 3 0 8 -4 11 -10z m-65
-15 c0 -16 -27 -32 -37 -22 -3 4 -3 13 0 22 8 20 37 20 37 0z m-603 -37 c-3
-8 -6 -5 -6 6 -1 11 2 17 5 13 3 -3 4 -12 1 -19z m2023 -8 c0 -20 -5 -30 -15
-30 -8 0 -15 6 -15 14 0 8 -5 16 -12 18 -17 6 0 28 23 28 14 0 19 -7 19 -30z
m-2256 4 c4 -11 1 -14 -11 -12 -9 2 -18 9 -21 16 -6 18 25 15 32 -4z m241 -54
c3 -11 22 -32 41 -47 49 -37 62 -63 38 -80 -24 -18 -59 -16 -75 3 -12 15 -11
16 8 10 13 -4 27 -5 33 -1 13 8 -10 45 -28 45 -7 0 -16 10 -21 23 -19 50 -22
67 -12 67 5 0 13 -9 16 -20z m720 -50 c-3 -5 -13 -10 -21 -10 -8 0 -14 5 -14
10 0 6 9 10 21 10 11 0 17 -4 14 -10z m43 -31 c-2 -6 -8 -10 -13 -10 -5 0 -11
4 -13 10 -2 6 4 11 13 11 9 0 15 -5 13 -11z m-613 -80 c23 -31 35 -39 52 -36
27 5 30 -8 6 -21 -34 -19 -113 27 -113 66 0 19 8 32 19 32 3 0 19 -19 36 -41z
m630 31 c3 -6 -1 -13 -10 -16 -19 -8 -30 0 -20 15 8 14 22 14 30 1z m-215 -20
c0 -5 -4 -10 -10 -10 -5 0 -10 5 -10 10 0 6 5 10 10 10 6 0 10 -4 10 -10z
m164 -16 c3 -8 2 -12 -4 -9 -6 3 -10 10 -10 16 0 14 7 11 14 -7z m-304 -84 c0
-11 -4 -20 -10 -20 -5 0 -10 9 -10 20 0 11 5 20 10 20 6 0 10 -9 10 -20z
m1310 -20 c0 -5 -5 -10 -11 -10 -5 0 -7 5 -4 10 3 6 8 10 11 10 2 0 4 -4 4
-10z m-728 -22 c-6 -6 -15 -8 -19 -4 -4 4 -1 11 7 16 19 12 27 3 12 -12z
m-1676 -3 c16 -12 16 -14 3 -15 -9 0 -22 7 -29 15 -16 19 0 19 26 0z m770 -30
c4 -14 3 -29 -1 -33 -8 -8 -35 26 -35 45 0 24 29 14 36 -12z m-86 1 c0 -2 -7
-6 -15 -10 -8 -3 -15 -1 -15 4 0 6 7 10 15 10 8 0 15 -2 15 -4z m870 -39 c0
-7 6 -21 13 -31 12 -16 14 -16 40 5 26 20 29 20 41 4 11 -15 13 -15 25 -1 12
14 16 14 42 0 29 -14 31 -41 3 -30 -17 7 -64 -10 -64 -23 0 -14 41 -21 61 -10
27 14 35 -10 11 -34 -18 -17 -25 -19 -45 -10 -16 8 -51 9 -102 4 -42 -4 -78
-3 -81 1 -9 14 -24 9 -24 -7 0 -19 30 -32 39 -17 10 17 27 0 29 -31 1 -21 -4
-30 -23 -37 -15 -6 -25 -17 -25 -29 0 -18 -6 -20 -48 -17 -27 2 -57 8 -68 13
-10 6 -25 8 -31 6 -7 -3 -13 0 -13 6 0 6 -7 11 -15 11 -8 0 -15 8 -15 18 0 10
-16 36 -36 58 -64 70 -63 72 19 67 87 -6 107 -20 87 -58 -12 -23 -12 -30 1
-53 8 -15 25 -28 37 -30 24 -4 28 9 12 39 -9 15 -5 25 23 51 19 18 39 43 45
55 8 14 18 20 31 16 10 -3 22 0 25 6 4 6 0 11 -8 11 -10 0 -14 10 -14 30 1 29
28 45 28 17z m1035 -20 c56 -6 52 -29 -5 -32 -25 -1 -48 3 -52 9 -12 17 -9 36
5 31 6 -3 30 -6 52 -8z m-1502 -14 c-6 -15 -4 -16 8 -6 13 10 20 8 40 -15 35
-38 73 -91 93 -129 l16 -33 -52 6 c-78 9 -140 8 -165 -1 -22 -7 -23 -5 -23 46
0 63 24 118 60 136 32 16 31 16 23 -4z m1343 6 c11 -18 -18 -39 -50 -38 -17 1
-43 -2 -57 -5 -16 -5 -29 -3 -33 3 -12 19 -29 12 -23 -9 4 -17 2 -18 -14 -10
-30 17 -42 47 -23 58 22 12 192 13 200 1z m-371 -40 c5 -6 5 -13 -2 -20 -7 -7
-23 -7 -53 1 -35 9 -45 9 -59 -4 -23 -21 -31 -20 -31 2 0 11 10 24 23 30 24
12 106 6 122 -9z m115 -3 c20 -25 8 -59 -24 -67 -52 -14 -72 20 -36 59 24 26
43 28 60 8z m-331 -19 c14 -18 4 -27 -31 -27 -26 0 -37 17 -21 33 11 12 40 8
52 -6z m703 -92 c3 -14 1 -25 -3 -25 -5 0 -9 11 -9 25 0 14 2 25 4 25 2 0 6
-11 8 -25z m3147 -424 c17 -11 5 -31 -19 -31 -24 0 -36 20 -19 31 8 5 16 9 19
9 3 0 11 -4 19 -9z m321 -55 c0 -3 -4 -8 -10 -11 -5 -3 -10 -1 -10 4 0 6 5 11
10 11 6 0 10 -2 10 -4z m-3997 -173 c-7 -2 -21 -2 -30 0 -10 3 -4 5 12 5 17 0
24 -2 18 -5z m1187 -194 c0 -84 -2 -100 -14 -96 -9 4 -17 -2 -21 -13 -3 -10
-13 -21 -22 -24 -21 -8 -63 20 -63 42 1 39 90 192 112 192 4 0 8 -45 8 -101z
m-1583 -121 c-3 -8 -6 -5 -6 6 -1 11 2 17 5 13 3 -3 4 -12 1 -19z m-1982 -148
c3 -5 -1 -10 -9 -10 -9 0 -16 5 -16 10 0 6 4 10 9 10 6 0 13 -4 16 -10z m177
-20 c5 0 7 -12 3 -30 -4 -18 -3 -30 4 -30 14 0 26 22 23 42 -4 21 16 34 30 20
8 -8 5 -26 -10 -61 -11 -27 -18 -59 -15 -69 6 -26 -11 -58 -37 -65 -17 -4 -20
0 -20 24 0 19 -7 32 -21 40 -17 9 -19 13 -8 19 8 6 13 29 13 64 1 43 4 55 14
51 8 -3 18 -5 24 -5z m528 0 c12 -8 11 -10 -7 -10 -12 0 -25 5 -28 10 -8 13
15 13 35 0z m-354 -93 c-9 -30 -23 -58 -32 -61 -9 -4 -18 -5 -20 -4 -8 8 18
104 33 120 28 31 37 6 19 -55z m472 54 c12 -11 22 -24 22 -30 0 -19 -36 -12
-56 10 -10 12 -28 25 -39 30 -16 6 -13 8 15 8 20 0 45 -8 58 -18z m67 -21 c3
-5 -1 -10 -9 -10 -9 0 -16 5 -16 10 0 6 4 10 9 10 6 0 13 -4 16 -10z m1375 0
c0 -5 -2 -10 -4 -10 -3 0 -8 5 -11 10 -3 6 -1 10 4 10 6 0 11 -4 11 -10z
m4197 -19 c13 -7 -8 -9 -74 -8 -71 2 -89 5 -81 14 12 15 127 10 155 -6z
m-5502 -1 c4 -6 -6 -10 -22 -9 -25 0 -26 1 -8 9 11 5 21 9 22 9 1 1 5 -3 8 -9z
m7104 -6 c8 -7 -403 -2 -489 5 -47 4 43 6 200 3 157 -3 287 -6 289 -8z m-6639
-30 c0 -20 -17 -26 -39 -12 -19 11 -19 14 -4 30 12 14 19 15 30 7 7 -6 13 -17
13 -25z m860 10 c0 -8 -4 -12 -10 -9 -5 3 -10 10 -10 16 0 5 5 9 10 9 6 0 10
-7 10 -16z m4235 -4 c3 -5 2 -10 -4 -10 -5 0 -13 5 -16 10 -3 6 -2 10 4 10 5
0 13 -4 16 -10z m-4598 -52 c-3 -8 -6 -5 -6 6 -1 11 2 17 5 13 3 -3 4 -12 1
-19z m417 -136 c-4 -31 -1 -49 9 -60 8 -10 17 -30 19 -47 3 -16 9 -38 13 -47
6 -14 2 -18 -18 -18 -13 0 -30 -7 -37 -15 -19 -23 -40 -18 -40 10 0 14 5 25
10 25 6 0 10 8 10 19 0 13 -10 20 -31 25 -28 5 -30 9 -27 43 3 37 28 60 28 26
0 -32 12 -34 27 -5 10 19 13 43 9 80 -4 29 -3 65 1 80 6 25 8 23 20 -23 8 -28
11 -69 7 -93z m-818 108 c18 -12 36 -30 39 -40 4 -11 12 -20 19 -20 8 0 19 -7
26 -15 7 -8 18 -15 25 -15 17 0 125 -70 125 -81 0 -5 7 -6 15 -3 9 4 15 0 15
-10 0 -18 -15 -22 -25 -6 -3 6 -17 7 -30 4 -27 -7 -85 23 -85 43 0 7 -20 23
-44 35 -25 12 -47 30 -50 42 -4 16 -8 18 -18 8 -16 -16 -28 -15 -28 3 0 8 -9
24 -20 35 -41 41 -18 53 36 20z m4624 11 c0 -5 -9 -11 -21 -14 -16 -4 -18 -3
-8 9 13 16 29 19 29 5z m-5624 -38 c-11 -11 -19 6 -11 24 8 17 8 17 12 0 3
-10 2 -21 -1 -24z m-606 17 c0 -5 -2 -10 -4 -10 -3 0 -8 5 -11 10 -3 6 -1 10
4 10 6 0 11 -4 11 -10z m1370 -5 c10 -12 8 -16 -15 -25 -35 -13 -35 -13 -35 8
0 34 28 43 50 17z m-939 -7 c1 -7 0 -17 -1 -23 -1 -5 -3 -21 -5 -35 -7 -51
-12 -65 -25 -65 -17 0 -24 52 -12 80 6 11 13 28 16 38 6 20 25 23 27 5z m8207
-10 c16 -16 15 -23 -4 -42 -19 -20 -34 -12 -34 18 0 35 16 46 38 24z m-8359
-82 c-21 -75 -18 -71 -35 -54 -13 13 -13 22 -3 64 6 27 17 55 22 62 18 23 29
-25 16 -72z m387 37 c-5 -12 -10 -13 -17 -6 -8 8 -7 18 2 34 12 21 14 22 17 6
2 -10 1 -25 -2 -34z m374 18 c0 -24 -18 -37 -32 -23 -8 8 -7 16 2 27 17 21 30
19 30 -4z m375 -23 c6 -24 4 -28 -14 -28 -16 0 -21 6 -21 28 0 52 23 52 35 0z
m603 10 c14 -14 16 -48 2 -48 -21 0 21 -154 51 -186 l21 -22 -20 -11 c-12 -6
-32 -11 -46 -11 -30 0 -35 -24 -8 -35 9 -4 34 -7 55 -6 28 2 37 -1 37 -13 0
-19 2 -19 34 -5 28 13 25 29 -5 29 -17 0 -29 20 -11 20 4 0 17 3 30 6 18 5 21
3 16 -10 -4 -11 0 -16 14 -16 16 0 20 6 19 28 -2 24 2 27 31 30 24 2 32 8 32
23 0 10 7 19 15 19 8 0 15 9 15 21 0 11 5 17 10 14 18 -11 11 -54 -10 -65 -11
-6 -20 -20 -20 -31 0 -15 -5 -19 -15 -15 -19 7 -47 -3 -39 -15 3 -5 14 -9 25
-9 32 0 17 -23 -22 -33 -19 -5 -38 -15 -42 -23 -4 -8 -17 -14 -28 -14 -11 0
-34 -13 -51 -30 -16 -16 -34 -30 -40 -30 -6 0 -29 -10 -52 -21 -22 -12 -49
-25 -58 -30 -10 -5 -27 -9 -38 -9 -13 0 -20 -7 -20 -19 0 -10 -9 -30 -21 -45
-15 -19 -19 -34 -14 -56 6 -28 5 -30 -24 -30 l-31 0 0 73 c0 60 4 78 20 97 11
13 20 30 20 39 0 9 12 24 25 34 l25 18 0 -33 0 -33 20 38 c25 46 25 51 0 44
-27 -7 -34 8 -20 43 9 22 18 28 38 27 25 -2 27 1 30 48 2 27 8 55 14 62 7 9 7
17 -1 27 -9 11 -10 25 -2 53 6 21 11 57 11 81 0 43 7 51 28 30z m-492 -35 l35
-26 -43 -39 c-65 -58 -80 -46 -39 31 7 13 5 20 -10 29 -21 14 -17 32 7 32 9 0
31 -12 50 -27z m3481 21 c-3 -3 -12 -4 -19 -1 -8 3 -5 6 6 6 11 1 17 -2 13 -5z
m270 0 c-3 -3 -12 -4 -19 -1 -8 3 -5 6 6 6 11 1 17 -2 13 -5z m2447 -20 c69
-33 85 -55 116 -158 20 -63 24 -142 8 -152 -4 -3 -5 -13 0 -22 8 -19 8 -39 -1
-62 -12 -32 -29 -139 -24 -152 2 -7 -2 -28 -9 -47 -11 -25 -11 -37 -3 -47 8
-10 8 -18 1 -26 -17 -21 -1 -277 18 -288 5 -3 17 -34 25 -69 9 -35 29 -84 44
-109 15 -26 30 -55 34 -65 14 -38 87 -141 145 -205 12 -14 22 -29 22 -34 0 -4
23 -22 50 -39 31 -19 50 -38 50 -49 0 -10 5 -22 11 -26 17 -10 -4 -24 -29 -18
-15 5 -22 14 -22 31 0 19 -4 24 -16 19 -10 -4 -23 3 -36 19 -11 14 -26 25 -35
25 -16 0 -123 103 -123 119 0 5 -6 16 -13 23 -22 21 -107 173 -107 190 0 9 -7
21 -15 28 -8 7 -15 24 -15 39 0 41 -39 73 -41 34 0 -15 -2 -15 -9 2 -13 29
-12 65 1 62 8 -1 12 56 14 201 1 162 -1 202 -12 202 -9 0 -13 17 -12 63 1 91
17 120 19 32 1 -61 2 -68 14 -52 10 12 14 54 15 134 1 64 4 120 7 124 2 4 -6
40 -18 80 -15 48 -29 74 -40 77 -26 6 -22 21 7 28 27 7 29 28 4 30 -8 1 -20 2
-26 3 -18 1 -16 21 2 21 28 0 15 18 -20 30 -19 6 -35 16 -35 21 0 6 3 9 8 7 4
-2 25 -13 46 -24z m-6613 -37 c-13 -13 -15 11 -4 40 7 16 8 15 11 -6 2 -13 -1
-28 -7 -34z m4989 33 c0 -5 -5 -10 -11 -10 -5 0 -7 5 -4 10 3 6 8 10 11 10 2
0 4 -4 4 -10z m-5096 -26 c11 -29 6 -51 -16 -70 -20 -18 -21 -18 -15 -1 4 10
7 34 7 53 0 35 13 46 24 18z m5974 -10 c12 -4 22 -10 22 -15 0 -14 -44 -10
-66 6 -19 14 -19 14 1 15 11 0 30 -3 43 -6z m-5318 -8 c0 -3 -4 -8 -10 -11 -5
-3 -10 -1 -10 4 0 6 5 11 10 11 6 0 10 -2 10 -4z m4354 -48 c3 -17 13 -39 20
-47 43 -48 76 -341 36 -316 -5 3 -11 1 -15 -4 -9 -16 -14 -145 -6 -156 10 -13
2 -95 -9 -95 -9 0 -25 204 -17 217 4 6 0 71 -15 223 -1 8 2 26 6 39 6 16 5 21
-3 17 -8 -5 -10 4 -5 33 4 23 2 46 -4 53 -11 15 -13 68 -2 68 4 0 10 -14 14
-32z m-4369 13 c8 -15 -24 -41 -51 -41 -30 0 -31 14 -2 34 25 18 44 20 53 7z
m-1230 -21 c3 -5 1 -10 -4 -10 -6 0 -11 5 -11 10 0 6 2 10 4 10 3 0 8 -4 11
-10z m1290 0 c3 -5 -1 -10 -10 -10 -9 0 -13 5 -10 10 3 6 8 10 10 10 2 0 7 -4
10 -10z m120 -22 c3 -3 -8 -12 -24 -19 -17 -8 -31 -21 -31 -29 0 -22 16 -43
28 -36 25 15 55 -107 32 -130 -9 -9 -23 -66 -37 -147 -4 -27 -14 -42 -34 -54
-16 -10 -29 -23 -29 -31 0 -7 -9 -33 -20 -56 -13 -28 -20 -68 -21 -112 -2 -93
-9 -144 -20 -144 -5 0 -9 13 -9 29 0 23 -5 30 -21 33 -12 2 -27 12 -33 23 -16
29 -28 35 -48 24 -19 -10 -58 -4 -58 10 0 10 45 31 65 31 8 0 15 4 15 10 0 12
-40 34 -48 26 -3 -4 -12 8 -19 25 -15 36 -4 59 28 59 16 0 18 -5 13 -24 -3
-14 -3 -29 0 -35 10 -16 56 9 56 30 0 9 7 19 15 23 11 4 14 13 9 30 -3 15 -1
27 8 33 30 19 57 101 73 223 9 69 21 129 26 135 5 5 9 17 9 27 0 10 5 18 11
18 6 0 9 6 6 14 -3 8 -3 17 0 20 8 7 49 3 58 -6z m-1895 -18 c0 -5 -5 -10 -11
-10 -5 0 -7 5 -4 10 3 6 8 10 11 10 2 0 4 -4 4 -10z m1460 -15 c-7 -9 -15 -13
-19 -10 -3 3 1 10 9 15 21 14 24 12 10 -5z m-950 -13 c0 -10 -9 -37 -20 -60
-11 -22 -20 -45 -20 -51 0 -17 -20 -23 -35 -11 -21 18 -18 45 9 89 32 50 66
67 66 33z m6793 1 c-13 -2 -35 -2 -50 0 -16 2 -5 4 22 4 28 0 40 -2 28 -4z
m-6281 -25 c-7 -7 -12 -8 -12 -2 0 14 12 26 19 19 2 -3 -1 -11 -7 -17z m-702
4 c0 -5 -7 -17 -15 -28 -14 -18 -14 -18 -15 9 0 17 5 27 15 27 8 0 15 -4 15
-8z m2182 -54 c-9 -9 -12 -7 -12 12 0 19 3 21 12 12 9 -9 9 -15 0 -24z m-502
0 c0 -13 -23 -5 -28 10 -2 7 2 10 12 6 9 -3 16 -11 16 -16z m-535 -8 c-3 -5
-11 -10 -16 -10 -6 0 -7 5 -4 10 3 6 11 10 16 10 6 0 7 -4 4 -10z m6362 -102
c-2 -18 -4 -6 -4 27 0 33 2 48 4 33 2 -15 2 -42 0 -60z m-6432 52 c-3 -5 -11
-10 -16 -10 -6 0 -7 5 -4 10 3 6 11 10 16 10 6 0 7 -4 4 -10z m363 -42 c-6
-17 -19 -33 -29 -35 -10 -3 -19 -15 -21 -27 -4 -28 -32 -27 -36 2 -3 17 2 25
18 29 13 3 27 21 37 45 12 30 18 36 28 28 10 -9 11 -18 3 -42z m-644 -23 c-8
-19 -44 -40 -44 -26 0 8 38 41 47 41 1 0 0 -7 -3 -15z m249 -36 c-11 -18 -26
-29 -40 -29 -12 0 -34 -5 -49 -10 -39 -15 -39 -7 1 31 59 56 119 61 88 8z
m-386 -11 c-3 -7 -5 -2 -5 12 0 14 2 19 5 13 2 -7 2 -19 0 -25z m-547 -9 c0
-5 -4 -9 -10 -9 -5 0 -10 7 -10 16 0 8 5 12 10 9 6 -3 10 -10 10 -16z m1195
-9 c0 -22 -29 -18 -33 3 -3 14 1 18 15 15 10 -2 18 -10 18 -18z m-465 -20 c0
-5 -2 -10 -4 -10 -3 0 -8 5 -11 10 -3 6 -1 10 4 10 6 0 11 -4 11 -10z m-764
-87 c-9 -9 -27 48 -19 60 4 7 11 -3 16 -22 4 -18 6 -36 3 -38z m724 39 c0 -5
-13 -18 -30 -30 -39 -29 -38 -40 3 -44 l32 -3 -34 -19 c-19 -10 -48 -31 -65
-47 -17 -16 -34 -29 -38 -29 -4 0 -18 -11 -32 -25 -14 -14 -36 -25 -50 -25
-15 0 -33 -11 -48 -29 -22 -29 -91 -81 -107 -81 -4 0 -28 -22 -53 -50 -27 -30
-55 -50 -67 -50 -14 0 -21 -6 -21 -20 0 -24 -8 -25 -38 -4 -18 13 -21 19 -11
30 6 8 19 14 28 14 17 1 61 33 61 46 0 9 28 31 65 49 33 16 86 53 123 85 13
11 29 20 35 20 7 0 27 14 45 31 28 25 31 33 21 45 -10 13 -14 13 -29 -1 -17
-16 -75 -21 -66 -6 3 4 18 11 33 14 23 5 28 11 29 37 1 17 7 37 14 43 10 10
11 5 7 -25 -3 -21 -2 -40 3 -43 15 -9 50 14 50 32 0 11 4 13 13 5 6 -5 21 -6
31 -2 14 4 16 9 8 14 -19 11 -14 24 11 32 12 3 30 15 40 25 18 20 37 25 37 11z
m65 -1 c3 -5 1 -12 -5 -16 -5 -3 -10 1 -10 9 0 18 6 21 15 7z m487 -31 c-6
-11 -9 -32 -6 -50 5 -23 3 -30 -10 -30 -17 0 -19 6 -16 65 2 41 18 61 35 44 6
-6 5 -16 -3 -29z m-530 -22 c-7 -7 -12 -8 -12 -2 0 14 12 26 19 19 2 -3 -1
-11 -7 -17z m-714 -70 c-6 -18 -28 -21 -28 -4 0 9 7 16 16 16 9 0 14 -5 12
-12z m1439 6 c-3 -3 -12 -4 -19 -1 -8 3 -5 6 6 6 11 1 17 -2 13 -5z m-447 -19
c11 -13 8 -15 -14 -15 -16 0 -26 5 -26 15 0 8 6 15 14 15 7 0 19 -7 26 -15z
m443 -52 c-2 -18 2 -35 7 -38 17 -10 11 -25 -9 -25 -33 0 -39 18 -32 93 1 5 9
7 19 5 12 -3 16 -12 15 -35z m142 17 c13 -15 15 -24 8 -31 -8 -8 -16 -3 -27
20 -19 35 -8 41 19 11z m-1165 -11 c0 -5 -9 -9 -20 -9 -22 0 -27 16 -7 23 15
5 27 -1 27 -14z m500 -9 c0 -11 -4 -20 -10 -20 -5 0 -10 9 -10 20 0 11 5 20
10 20 6 0 10 -9 10 -20z m-599 -41 c-15 -12 -28 -16 -34 -10 -15 15 2 31 31
31 l27 -1 -24 -20z m739 11 c0 -5 -4 -10 -9 -10 -6 0 -13 5 -16 10 -3 6 1 10
9 10 9 0 16 -4 16 -10z m90 6 c0 -3 -4 -8 -10 -11 -5 -3 -10 -1 -10 4 0 6 5
11 10 11 6 0 10 -2 10 -4z m-200 -58 c0 -4 -7 -8 -15 -8 -8 0 -15 5 -15 10 0
6 -7 10 -15 10 -15 0 -20 21 -8 33 7 8 53 -31 53 -45z m6439 -30 c1 -15 -3
-30 -9 -33 -6 -4 -10 16 -9 52 1 44 3 52 9 33 4 -14 8 -37 9 -52z m-7169 7
c-7 -8 -22 -15 -34 -15 -18 0 -17 2 9 19 34 21 44 19 25 -4z m3410 0 c10 -11
10 -19 2 -27 -12 -12 -5 -39 15 -51 7 -4 13 -14 13 -21 0 -8 7 -17 16 -20 14
-5 15 -22 11 -124 -9 -189 -24 -348 -36 -371 -16 -29 -27 -27 -66 12 l-33 33
3 90 c12 282 17 363 25 399 5 22 11 52 15 68 6 31 17 34 35 12z m-2210 -34 c0
-6 -4 -12 -9 -15 -5 -3 -11 -19 -13 -36 -6 -43 24 -37 36 7 7 21 20 36 37 44
52 21 67 -14 20 -46 -17 -10 -34 -30 -40 -42 -13 -29 -31 -29 -60 -2 -18 17
-21 27 -15 52 3 18 8 35 11 40 6 10 33 9 33 -2z m-225 -11 c3 -5 2 -10 -4 -10
-5 0 -13 5 -16 10 -3 6 -2 10 4 10 5 0 13 -4 16 -10z m2848 -9 c13 -50 -36
-491 -66 -591 -12 -42 -15 -45 -47 -45 l-35 0 1 150 c0 125 26 447 40 493 2 7
22 12 53 12 40 0 50 -4 54 -19z m1637 -1 c0 -5 -4 -10 -10 -10 -5 0 -10 5 -10
10 0 6 5 10 10 10 6 0 10 -4 10 -10z m-5630 -15 c0 -17 -46 -39 -61 -29 -16 9
-10 24 14 34 33 13 47 12 47 -5z m1534 -1 c4 -9 5 -19 3 -21 -8 -8 -37 10 -37
23 0 19 26 18 34 -2z m2655 0 c11 -4 13 -22 7 -92 -7 -100 -40 -333 -62 -438
-15 -71 -15 -72 -52 -78 -20 -3 -48 -6 -61 -6 l-24 0 7 133 c8 168 35 434 48
468 8 24 12 25 66 22 31 -3 63 -6 71 -9z m-469 -24 c0 -35 11 -37 63 -11 l37
19 1 -22 c9 -129 -39 -544 -65 -564 -15 -12 -83 -3 -89 12 -7 18 12 424 24
514 11 80 29 112 29 52z m3619 -43 c1 -16 -3 -26 -9 -22 -5 3 -10 25 -9 48 0
33 2 38 9 22 5 -11 9 -33 9 -48z m-1699 -2 c-10 -12 -9 -15 2 -15 15 0 27 -33
68 -195 11 -44 24 -93 29 -110 4 -16 39 -96 77 -177 62 -133 100 -193 158
-248 19 -20 14 -40 -10 -40 -9 0 -14 -6 -11 -12 2 -9 19 -12 46 -10 36 3 41 1
41 -18 0 -13 -10 -24 -27 -31 -24 -9 -31 -5 -80 48 -30 32 -65 74 -78 94 -13
20 -29 42 -37 50 -8 8 -30 44 -51 81 -93 172 -150 362 -146 490 1 37 -1 71 -4
75 -9 8 -9 58 0 66 3 4 13 -2 20 -13 12 -17 12 -24 3 -35z m-5380 -26 c0 -5
-4 -9 -10 -9 -5 0 -10 7 -10 16 0 8 5 12 10 9 6 -3 10 -10 10 -16z m1123 -59
c-1 -36 -2 -91 -3 -122 0 -44 -7 -70 -29 -110 -15 -30 -31 -69 -34 -88 -3 -19
-11 -62 -17 -95 -6 -33 -18 -100 -27 -150 -9 -49 -20 -95 -24 -101 -5 -6 -9
-26 -10 -45 -2 -19 -6 -38 -10 -44 -8 -12 -21 -105 -21 -155 0 -19 -3 -28 -6
-20 -3 8 -12 20 -21 26 -13 10 -13 15 -2 27 7 9 9 21 5 28 -10 18 -13 89 -3
95 5 3 9 18 9 35 0 16 5 29 10 29 6 0 10 7 10 16 0 13 -6 10 -25 -11 l-26 -27
7 29 c9 39 14 45 30 39 15 -6 34 48 34 96 0 15 7 45 15 65 18 47 45 178 45
219 0 17 13 50 29 75 26 39 29 53 29 119 0 41 -5 85 -11 98 -9 18 -8 25 3 33
34 21 45 6 43 -61z m-1406 1 c2 -10 15 -23 29 -29 30 -14 22 -37 -18 -51 -17
-6 -33 -11 -34 -11 -9 0 -3 39 6 45 15 9 12 25 -4 25 -24 0 -39 -26 -27 -49
10 -17 7 -20 -19 -26 -16 -4 -39 -4 -50 0 -12 4 -35 -2 -60 -16 -39 -22 -40
-22 -54 -3 -17 23 -10 29 69 55 34 11 51 22 53 35 7 40 12 44 58 44 36 0 47
-4 51 -19z m149 -15 c6 -17 -29 -56 -51 -56 -9 0 -15 9 -15 25 0 36 54 62 66
31z m1134 -31 c0 -8 -7 -15 -15 -15 -9 0 -12 6 -9 15 4 8 10 15 15 15 5 0 9
-7 9 -15z m-1021 -13 c33 -20 70 -63 71 -81 0 -11 -5 -10 -22 3 -42 30 -117
66 -137 66 -12 0 -18 5 -16 13 8 18 74 18 104 -1z m7150 -28 c7 -20 10 -38 6
-42 -8 -8 -25 18 -25 40 0 9 -4 20 -10 23 -15 9 -12 25 3 19 7 -2 19 -21 26
-40z m-7400 -149 c-7 -22 -18 -49 -25 -59 -7 -11 -10 -32 -7 -48 4 -19 0 -35
-10 -46 -22 -24 -31 -68 -17 -77 7 -4 16 -1 21 6 7 11 9 10 9 -3 0 -11 -10
-20 -25 -24 -30 -7 -31 -15 -5 -39 11 -10 20 -24 20 -32 0 -8 13 -22 30 -31
22 -12 30 -24 30 -44 0 -16 5 -28 10 -28 6 0 10 7 10 15 0 24 29 29 50 10 11
-10 25 -37 32 -59 6 -23 15 -45 19 -51 4 -5 10 -32 14 -60 5 -27 16 -61 26
-74 11 -13 19 -29 19 -36 0 -6 11 -22 25 -35 14 -13 25 -33 25 -44 0 -29 -37
-65 -61 -59 -22 6 -25 23 -7 41 9 9 7 12 -13 12 -29 0 -54 15 -55 32 -1 34
-30 86 -55 101 -22 12 -29 23 -29 47 0 35 -46 129 -72 148 -10 7 -18 22 -18
33 0 11 -9 29 -20 41 -11 12 -25 37 -31 57 -7 20 -25 52 -40 71 -16 19 -29 43
-29 53 0 14 -5 17 -16 13 -9 -4 -23 -1 -30 5 -8 6 -25 8 -39 5 -24 -6 -25 -4
-19 20 7 28 1 29 -49 9 -14 -6 -17 -2 -17 23 0 48 -9 62 -41 62 -17 0 -32 6
-35 15 -8 20 -41 19 -53 -2 -19 -32 -11 -4 11 42 23 48 47 62 75 46 11 -6 24
-6 36 1 10 5 30 7 44 3 17 -4 32 0 44 11 18 16 19 16 19 0 0 -15 2 -15 31 -1
17 9 33 14 37 11 3 -3 0 -6 -6 -6 -22 0 -12 -19 11 -22 16 -2 23 -11 25 -31 2
-18 13 -32 31 -42 23 -11 27 -19 24 -40 -8 -38 14 -30 27 11 9 26 9 39 1 47
-16 16 -13 27 8 27 13 0 21 9 26 30 4 16 14 34 23 39 14 8 18 4 20 -22 2 -17
-2 -50 -9 -72z m453 60 c28 -14 62 -25 75 -25 14 0 23 -6 23 -15 0 -19 -32
-33 -38 -17 -2 7 -16 12 -30 12 -15 0 -34 4 -42 10 -9 5 -19 5 -27 -1 -16 -14
-33 -3 -33 20 0 9 -5 22 -12 29 -22 22 28 14 84 -13z m6996 -36 c13 -22 21
-43 19 -45 -6 -6 -41 43 -50 69 -12 32 8 17 31 -24z m-6458 -15 c0 -8 -5 -12
-10 -9 -6 4 -8 11 -5 16 9 14 15 11 15 -7z m-40 2 c0 -11 -19 -15 -25 -6 -3 5
1 10 9 10 9 0 16 -2 16 -4z m-345 -26 c3 -5 1 -10 -4 -10 -6 0 -11 5 -11 10 0
6 2 10 4 10 3 0 8 -4 11 -10z m194 -43 c12 -15 5 -27 -16 -27 -7 0 -13 9 -13
20 0 23 13 26 29 7z m226 -96 c6 -11 -75 -51 -88 -44 -11 7 2 23 19 23 9 0 22
7 30 15 18 17 30 19 39 6z m-110 -71 c-3 -5 -11 -10 -16 -10 -6 0 -7 5 -4 10
3 6 11 10 16 10 6 0 7 -4 4 -10z m6905 -130 c0 -13 -11 -13 -30 0 -12 8 -11
10 8 10 12 0 22 -4 22 -10z m-7080 -35 c-7 -8 -18 -15 -25 -15 -6 0 -17 -11
-23 -25 -7 -14 -24 -30 -39 -36 -33 -12 -52 -37 -53 -66 0 -14 -6 -23 -15 -23
-9 0 -15 9 -15 23 0 38 124 156 164 157 15 0 16 -3 6 -15z m5317 -191 c1 -5
-13 -17 -32 -26 -34 -17 -35 -17 -55 4 -10 11 -18 24 -16 27 6 9 100 5 103 -5z
m173 -153 c0 -14 -18 -23 -30 -16 -6 4 -8 11 -5 16 8 12 35 12 35 0z m40 -136
c0 -17 -4 -18 -39 -8 -23 6 -23 7 -5 14 30 12 44 10 44 -6z"/>
<path d="M3853 7938 c-36 -17 -45 -27 -54 -62 -5 -22 -14 -54 -19 -71 -41
-135 -46 -177 -35 -252 6 -39 11 -47 40 -59 19 -8 43 -14 53 -14 10 0 27 -9
37 -20 51 -56 100 25 63 105 -8 19 -8 45 1 108 6 45 13 110 14 144 2 34 6 66
10 69 4 4 7 20 7 34 0 23 -5 29 -31 34 -40 8 -37 8 -86 -16z"/>
<path d="M4012 7894 c-35 -25 -28 -51 18 -65 75 -23 138 20 100 67 -16 19 -90
18 -118 -2z"/>
<path d="M3570 7845 c0 -28 20 -55 41 -55 17 0 20 5 17 33 -2 27 -8 33 -30 35
-21 2 -28 -1 -28 -13z"/>
<path d="M3799 7401 c13 -12 28 -21 33 -21 15 0 3 25 -13 25 -8 0 -21 4 -29 9
-8 4 -4 -2 9 -13z"/>
<path d="M3883 7148 c2 -7 9 -13 15 -12 59 5 58 5 37 14 -30 13 -57 12 -52 -2z"/>
<path d="M765 5960 c-3 -5 -16 -10 -28 -11 -21 0 -21 -1 3 -11 14 -5 33 -14
42 -19 10 -5 23 -6 30 -4 8 3 32 -10 55 -30 51 -43 65 -30 22 20 -47 53 -108
81 -124 55z"/>
<path d="M985 5731 c-3 -5 3 -16 14 -23 10 -7 20 -22 22 -33 3 -14 14 -21 38
-23 28 -3 32 -7 28 -24 -7 -26 2 -48 19 -48 8 0 14 -4 14 -9 0 -6 -15 -4 -33
4 -46 19 -140 6 -170 -23 -32 -33 -14 -37 31 -7 35 23 46 25 82 18 48 -9 50
-29 2 -26 -23 2 -32 -1 -29 -10 2 -6 20 -13 40 -15 45 -4 48 -18 7 -27 -16 -4
-30 -10 -30 -14 0 -22 34 -71 48 -71 13 0 12 -3 -6 -16 -34 -23 -28 -57 19
-99 47 -42 60 -38 78 28 11 43 6 67 -14 67 -24 0 -45 31 -45 66 0 27 4 34 20
34 27 0 25 16 -2 24 l-23 6 23 20 c14 11 20 24 16 31 -5 9 6 10 43 5 55 -7
108 7 118 31 3 9 0 20 -7 24 -9 6 -8 13 6 28 10 11 16 27 14 36 -3 14 -6 14
-24 -4 -16 -14 -24 -17 -33 -8 -18 18 -38 -8 -21 -28 11 -13 7 -15 -29 -15
-38 0 -42 2 -39 23 2 18 -2 22 -25 22 -17 0 -34 8 -43 19 -11 16 -17 17 -26 8
-19 -19 -34 -14 -46 13 -12 26 -26 32 -37 16z"/>
<path d="M528 5693 c7 -3 16 -2 19 1 4 3 -2 6 -13 5 -11 0 -14 -3 -6 -6z"/>
<path d="M1020 5620 c0 -5 7 -10 15 -10 8 0 15 5 15 10 0 6 -7 10 -15 10 -8 0
-15 -4 -15 -10z"/>
<path d="M1283 5552 c-4 -9 -15 -28 -25 -41 -18 -23 -24 -62 -12 -74 9 -9 78
66 75 82 -1 8 2 17 9 21 6 4 1 11 -15 18 -22 10 -27 9 -32 -6z"/>
<path d="M840 5445 c0 -8 2 -15 4 -15 2 0 6 7 10 15 3 8 1 15 -4 15 -6 0 -10
-7 -10 -15z"/>
<path d="M950 5430 c0 -5 5 -10 10 -10 6 0 10 5 10 10 0 6 -4 10 -10 10 -5 0
-10 -4 -10 -10z"/>
<path d="M579 5403 c-5 -14 -7 -33 -4 -40 6 -17 25 -8 25 11 0 8 7 19 15 26
21 17 19 30 -5 30 -13 0 -24 -10 -31 -27z"/>
<path d="M1126 5423 c-11 -11 -6 -23 9 -23 8 0 15 4 15 9 0 13 -16 22 -24 14z"/>
<path d="M645 5350 c-16 -18 -17 -20 -1 -26 16 -6 45 19 46 39 0 14 -27 7 -45
-13z"/>
<path d="M3230 5732 c-13 -11 -23 -33 -27 -60 -7 -49 5 -54 30 -14 42 72 40
109 -3 74z"/>
<path d="M3260 5665 c0 -11 7 -15 23 -13 12 2 22 8 22 13 0 6 -10 11 -22 13
-16 2 -23 -2 -23 -13z"/>
<path d="M1743 4858 c-13 -23 -13 -48 1 -48 8 0 13 12 14 30 1 33 -3 37 -15
18z"/>
<path d="M1677 4473 c-12 -11 -8 -23 8 -23 8 0 15 7 15 15 0 16 -12 20 -23 8z"/>
<path d="M1730 4460 c0 -5 7 -10 15 -10 8 0 15 5 15 10 0 6 -7 10 -15 10 -8 0
-15 -4 -15 -10z"/>
<path d="M2105 3780 c-3 -5 -1 -10 4 -10 6 0 11 5 11 10 0 6 -2 10 -4 10 -3 0
-8 -4 -11 -10z"/>
<path d="M4470 1459 c0 -18 2 -19 15 -9 8 7 15 16 15 21 0 5 -7 9 -15 9 -9 0
-15 -9 -15 -21z"/>
<path d="M6210 1259 c0 -5 5 -7 10 -4 6 3 10 8 10 11 0 2 -4 4 -10 4 -5 0 -10
-5 -10 -11z"/>
<path d="M442 1288 c6 -18 28 -21 28 -4 0 9 -7 16 -16 16 -9 0 -14 -5 -12 -12z"/>
<path d="M670 415 c0 -15 4 -24 10 -20 6 3 10 12 10 20 0 8 -4 17 -10 20 -6 4
-10 -5 -10 -20z"/>
<path d="M6934 9009 c-3 -6 -1 -16 5 -22 12 -12 171 -32 336 -42 117 -7 121
-6 145 16 67 62 80 59 -213 59 -181 0 -268 -3 -273 -11z"/>
<path d="M262 8970 c-11 -18 -10 -20 8 -20 13 0 20 7 20 20 0 11 -3 20 -8 20
-4 0 -13 -9 -20 -20z"/>
<path d="M740 8825 c0 -15 4 -24 10 -20 6 3 10 12 10 20 0 8 -4 17 -10 20 -6
4 -10 -5 -10 -20z"/>
<path d="M770 8751 c0 -12 5 -21 10 -21 6 0 10 6 10 14 0 8 -4 18 -10 21 -5 3
-10 -3 -10 -14z"/>
<path d="M275 8620 c-9 -28 7 -44 35 -35 15 5 20 13 18 28 -4 31 -44 35 -53 7z"/>
<path d="M851 8596 c-8 -9 -11 -19 -7 -23 9 -9 29 13 24 27 -2 8 -8 7 -17 -4z"/>
<path d="M110 8525 c0 -29 25 -44 43 -26 14 14 -2 44 -27 49 -11 3 -16 -4 -16
-23z"/>
<path d="M355 8400 c-8 -12 21 -60 35 -60 17 0 29 34 19 53 -11 19 -44 23 -54
7z"/>
<path d="M30 8350 c0 -5 7 -10 16 -10 8 0 12 5 9 10 -3 6 -10 10 -16 10 -5 0
-9 -4 -9 -10z"/>
<path d="M8310 5620 c0 -5 5 -10 10 -10 6 0 10 5 10 10 0 6 -4 10 -10 10 -5 0
-10 -4 -10 -10z"/>
<path d="M8390 5580 c0 -5 4 -10 9 -10 6 0 13 5 16 10 3 6 -1 10 -9 10 -9 0
-16 -4 -16 -10z"/>
<path d="M8310 5550 c0 -13 5 -18 14 -14 8 3 12 12 9 20 -8 21 -23 17 -23 -6z"/>
<path d="M629 4886 c-2 -2 -42 -6 -89 -9 -138 -8 -250 -28 -250 -45 0 -16 3
-16 265 12 214 23 235 26 235 37 0 8 -152 14 -161 5z"/>
<path d="M518 4821 c-49 -8 -88 -19 -88 -23 0 -17 33 -21 79 -10 25 7 91 14
146 17 127 8 165 13 165 26 0 14 -195 7 -302 -10z"/>
<path d="M673 4774 c-151 -13 -183 -19 -183 -36 0 -7 19 -9 58 -4 31 3 93 8
137 11 119 9 165 15 165 24 0 16 -36 17 -177 5z"/>
<path d="M705 4714 c-123 -11 -145 -16 -145 -31 0 -11 6 -14 25 -9 54 14 290
27 293 16 5 -15 29 -12 35 5 4 8 3 16 -1 18 -8 5 -150 5 -207 1z"/>
<path d="M735 4654 c-159 -21 -178 -33 -135 -86 10 -14 22 -44 26 -67 6 -40
13 -46 44 -41 18 2 50 29 50 42 0 4 -19 8 -42 8 -55 0 -38 19 23 25 70 7 102
24 96 51 -3 20 2 25 37 36 24 8 42 20 44 31 4 20 6 20 -143 1z m15 -54 c0 -5
-20 -10 -44 -10 -25 0 -48 5 -51 10 -4 6 13 10 44 10 28 0 51 -4 51 -10z
m-120 -10 c0 -5 -4 -10 -10 -10 -5 0 -10 5 -10 10 0 6 5 10 10 10 6 0 10 -4
10 -10z"/>
<path d="M1118 4373 c7 -3 16 -2 19 1 4 3 -2 6 -13 5 -11 0 -14 -3 -6 -6z"/>
<path d="M980 4294 c0 -9 5 -14 12 -12 18 6 21 28 4 28 -9 0 -16 -7 -16 -16z"/>
<path d="M376 4252 c-3 -6 -1 -14 5 -17 15 -10 25 3 12 16 -7 7 -13 7 -17 1z"/>
<path d="M370 4186 c0 -2 9 -6 20 -9 11 -3 20 -1 20 4 0 5 -9 9 -20 9 -11 0
-20 -2 -20 -4z"/>
<path d="M308 4109 c-39 -22 -2 -48 70 -49 20 0 14 28 -10 44 -26 18 -36 19
-60 5z"/>
<path d="M889 3877 c-13 -29 -5 -61 14 -55 15 6 22 57 8 71 -7 7 -14 2 -22
-16z"/>
<path d="M236 3553 c-4 -5 -37 -8 -72 -9 -47 -1 -70 -6 -82 -18 -15 -15 -15
-18 -2 -26 24 -15 80 -12 86 5 7 18 59 20 100 5 36 -14 49 1 24 28 -21 23 -41
28 -54 15z"/>
<path d="M436 3511 c-8 -12 50 -25 66 -15 8 5 6 10 -8 15 -27 11 -52 11 -58 0z"/>
<path d="M348 3503 c7 -3 16 -2 19 1 4 3 -2 6 -13 5 -11 0 -14 -3 -6 -6z"/>
<path d="M2010 3420 c0 -5 5 -10 10 -10 6 0 10 5 10 10 0 6 -4 10 -10 10 -5 0
-10 -4 -10 -10z"/>
<path d="M10 2660 c0 -5 8 -10 18 -10 10 0 23 -5 30 -12 9 -9 12 -9 12 0 0 12
-31 32 -49 32 -6 0 -11 -4 -11 -10z"/>
<path d="M8766 552 c-13 -12 8 -22 46 -22 23 0 39 3 35 6 -9 9 -75 22 -81 16z"/>
<path d="M8970 521 c0 -12 4 -21 9 -21 5 0 17 -3 26 -6 13 -5 16 -2 13 17 -4
32 -48 41 -48 10z"/>
<path d="M6860 249 c0 -5 5 -7 10 -4 6 3 10 8 10 11 0 2 -4 4 -10 4 -5 0 -10
-5 -10 -11z"/>
<path d="M7253 108 c-20 -33 -43 -84 -43 -96 0 -9 11 -12 37 -10 34 3 38 6 45
38 4 19 5 45 3 58 -6 24 -29 30 -42 10z"/>
</g>
</svg>
